<svg version="1.2" xmlns="http://www.w3.org/2000/svg" viewBox="0 0 1285 949" width="1285" height="949">
	<title>background</title>
	<defs>
		<linearGradient id="g1" x2="1" gradientUnits="userSpaceOnUse" gradientTransform="matrix(-985.76,-812.818,798.963,-968.957,892.272,1117.08)">
			<stop offset="0" stop-color="#ffedba"/>
			<stop offset="1" stop-color="#ee4d47"/>
		</linearGradient>
		<clipPath clipPathUnits="userSpaceOnUse" id="cp1">
			<path d="m1285-2h-1285v800h1185c55.23 0 100-44.77 100-100z"/>
		</clipPath>
		<linearGradient id="g2" x2="1" gradientUnits="userSpaceOnUse" gradientTransform="matrix(0,1104,-4551.258,0,865,-214)">
			<stop offset="0" stop-color="#f4a984" stop-opacity="1"/>
			<stop offset="1" stop-color="#f4a984" stop-opacity="0"/>
		</linearGradient>
		<linearGradient id="g3" x2="1" gradientUnits="userSpaceOnUse" gradientTransform="matrix(0,279.751,-264.257,0,1098.95,445.562)">
			<stop offset=".241" stop-color="#2ca77f"/>
			<stop offset="1" stop-color="#1b8877"/>
		</linearGradient>
		<linearGradient id="g4" x2="1" gradientUnits="userSpaceOnUse" gradientTransform="matrix(0,279.751,-264.257,0,1098.95,445.562)">
			<stop offset=".241" stop-color="#2ca77f"/>
			<stop offset="1" stop-color="#1b8877"/>
		</linearGradient>
		<clipPath clipPathUnits="userSpaceOnUse" id="cp2">
			<path d="m1098.89 493.5c-58.78 0-106.33 100.89-106.33 225.25h212.77c0-124.48-47.67-225.25-106.44-225.25z"/>
		</clipPath>
		<linearGradient id="g5" x2="1" gradientUnits="userSpaceOnUse" gradientTransform="matrix(0,254.14,-280.863,0,1105.84,456.726)">
			<stop offset="0" stop-color="#ffffff" stop-opacity="1"/>
			<stop offset="1" stop-color="#ffffff" stop-opacity="0"/>
		</linearGradient>
		<linearGradient id="g6" x2="1" gradientUnits="userSpaceOnUse" gradientTransform="matrix(0,193.724,-182.911,0,1216.82,525.679)">
			<stop offset=".422" stop-color="#2ca77f"/>
			<stop offset="1" stop-color="#1b8877"/>
		</linearGradient>
		<clipPath clipPathUnits="userSpaceOnUse" id="cp3">
			<path d="m1216.82 554.57c-43 0-77.81 73.84-77.81 164.83h155.63c-0.12-90.99-34.93-164.83-77.82-164.83z"/>
		</clipPath>
		<linearGradient id="g7" x2="1" gradientUnits="userSpaceOnUse" gradientTransform="matrix(0,158.263,-147.283,0,1215.84,555.23)">
			<stop offset="0" stop-color="#ffffff" stop-opacity="1"/>
			<stop offset="1" stop-color="#ffffff" stop-opacity="0"/>
		</linearGradient>
		<linearGradient id="g8" x2="1" gradientUnits="userSpaceOnUse" gradientTransform="matrix(0,292.346,-297.091,0,910.478,474.457)">
			<stop offset=".422" stop-color="#2ca77f"/>
			<stop offset="1" stop-color="#1b8877"/>
		</linearGradient>
		<clipPath clipPathUnits="userSpaceOnUse" id="cp4">
			<path d="m910.48 474.46c-68.17 0-123.46 108.79-123.46 242.97h246.92c-0.13-134.18-55.3-242.97-123.46-242.97z"/>
		</clipPath>
		<linearGradient id="g9" x2="1" gradientUnits="userSpaceOnUse" gradientTransform="matrix(0,207.357,-206.07,0,902.269,532.897)">
			<stop offset="0" stop-color="#ffffff" stop-opacity="1"/>
			<stop offset="1" stop-color="#ffffff" stop-opacity="0"/>
		</linearGradient>
		<linearGradient id="g10" x2="1" gradientUnits="userSpaceOnUse" gradientTransform="matrix(0,59.019,-72.694,0,1084.16,529.011)">
			<stop offset="0" stop-color="#d3d86c"/>
			<stop offset="1" stop-color="#82a637"/>
		</linearGradient>
		<linearGradient id="g11" x2="1" gradientUnits="userSpaceOnUse" gradientTransform="matrix(0,108.041,-132.438,0,990.59,401.877)">
			<stop offset="0" stop-color="#d3d86c"/>
			<stop offset="1" stop-color="#82a637"/>
		</linearGradient>
		<clipPath clipPathUnits="userSpaceOnUse" id="cp5">
			<path d="m1188.92 611.71h126.09v112.29h-126.09z"/>
		</clipPath>
		<linearGradient id="g12" x2="1" gradientUnits="userSpaceOnUse" gradientTransform="matrix(0,18.11,-31.694,0,1251.88,651.604)">
			<stop offset="0" stop-color="#d3d86c"/>
			<stop offset="1" stop-color="#82a637"/>
		</linearGradient>
		<linearGradient id="g13" x2="1" gradientUnits="userSpaceOnUse" gradientTransform="matrix(0,148.153,-296.63,0,811.784,566.394)">
			<stop offset="0" stop-color="#d3d86c"/>
			<stop offset="1" stop-color="#82a637"/>
		</linearGradient>
		<linearGradient id="g14" x2="1" gradientUnits="userSpaceOnUse" gradientTransform="matrix(0,111.776,-4.332,0,811.842,602.771)">
			<stop offset="0" stop-color="#084f15" stop-opacity="0"/>
			<stop offset="1" stop-color="#084f15" stop-opacity="1"/>
		</linearGradient>
		<linearGradient id="g15" x2="1" gradientUnits="userSpaceOnUse" gradientTransform="matrix(0,105.503,-32.264,0,786.702,609.158)">
			<stop offset="0" stop-color="#084f15" stop-opacity="0"/>
			<stop offset="1" stop-color="#084f15" stop-opacity="1"/>
		</linearGradient>
		<linearGradient id="g16" x2="1" gradientUnits="userSpaceOnUse" gradientTransform="matrix(0,86.113,-53.014,0,763.787,628.434)">
			<stop offset="0" stop-color="#084f15" stop-opacity="0"/>
			<stop offset="1" stop-color="#084f15" stop-opacity="1"/>
		</linearGradient>
		<linearGradient id="g17" x2="1" gradientUnits="userSpaceOnUse" gradientTransform="matrix(0,57.485,-59.626,0,743.494,657.176)">
			<stop offset="0" stop-color="#084f15" stop-opacity="0"/>
			<stop offset="1" stop-color="#084f15" stop-opacity="1"/>
		</linearGradient>
		<linearGradient id="g18" x2="1" gradientUnits="userSpaceOnUse" gradientTransform="matrix(0,24.066,-42.525,0,722.972,690.481)">
			<stop offset="0" stop-color="#084f15" stop-opacity="0"/>
			<stop offset="1" stop-color="#084f15" stop-opacity="1"/>
		</linearGradient>
		<linearGradient id="g19" x2="1" gradientUnits="userSpaceOnUse" gradientTransform="matrix(0,105.503,-32.264,0,836.866,609.158)">
			<stop offset="0" stop-color="#084f15" stop-opacity="0"/>
			<stop offset="1" stop-color="#084f15" stop-opacity="1"/>
		</linearGradient>
		<linearGradient id="g20" x2="1" gradientUnits="userSpaceOnUse" gradientTransform="matrix(0,86.113,-53.128,0,859.838,628.548)">
			<stop offset="0" stop-color="#084f15" stop-opacity="0"/>
			<stop offset="1" stop-color="#084f15" stop-opacity="1"/>
		</linearGradient>
		<linearGradient id="g21" x2="1" gradientUnits="userSpaceOnUse" gradientTransform="matrix(0,57.485,-59.626,0,880.075,657.176)">
			<stop offset="0" stop-color="#084f15" stop-opacity="0"/>
			<stop offset="1" stop-color="#084f15" stop-opacity="1"/>
		</linearGradient>
		<linearGradient id="g22" x2="1" gradientUnits="userSpaceOnUse" gradientTransform="matrix(0,94.279,-188.472,0,935.197,620.382)">
			<stop offset="0" stop-color="#d3d86c"/>
			<stop offset="1" stop-color="#82a637"/>
		</linearGradient>
		<linearGradient id="g23" x2="1" gradientUnits="userSpaceOnUse" gradientTransform="matrix(0,71.057,-2.737,0,935.31,643.604)">
			<stop offset="0" stop-color="#084f15" stop-opacity="0"/>
			<stop offset="1" stop-color="#084f15" stop-opacity="1"/>
		</linearGradient>
		<linearGradient id="g24" x2="1" gradientUnits="userSpaceOnUse" gradientTransform="matrix(0,67.065,-20.521,0,919.464,647.482)">
			<stop offset="0" stop-color="#084f15" stop-opacity="0"/>
			<stop offset="1" stop-color="#084f15" stop-opacity="1"/>
		</linearGradient>
		<linearGradient id="g25" x2="1" gradientUnits="userSpaceOnUse" gradientTransform="matrix(0,54.747,-33.746,0,904.871,659.914)">
			<stop offset="0" stop-color="#084f15" stop-opacity="0"/>
			<stop offset="1" stop-color="#084f15" stop-opacity="1"/>
		</linearGradient>
		<linearGradient id="g26" x2="1" gradientUnits="userSpaceOnUse" gradientTransform="matrix(0,36.498,-37.965,0,891.931,678.049)">
			<stop offset="0" stop-color="#084f15" stop-opacity="0"/>
			<stop offset="1" stop-color="#084f15" stop-opacity="1"/>
		</linearGradient>
		<linearGradient id="g27" x2="1" gradientUnits="userSpaceOnUse" gradientTransform="matrix(0,15.284,-27.019,0,878.935,699.377)">
			<stop offset="0" stop-color="#084f15" stop-opacity="0"/>
			<stop offset="1" stop-color="#084f15" stop-opacity="1"/>
		</linearGradient>
		<linearGradient id="g28" x2="1" gradientUnits="userSpaceOnUse" gradientTransform="matrix(0,66.951,-20.519,0,951.27,647.71)">
			<stop offset="0" stop-color="#084f15" stop-opacity="0"/>
			<stop offset="1" stop-color="#084f15" stop-opacity="1"/>
		</linearGradient>
		<linearGradient id="g29" x2="1" gradientUnits="userSpaceOnUse" gradientTransform="matrix(0,54.747,-33.748,0,965.87,659.914)">
			<stop offset="0" stop-color="#084f15" stop-opacity="0"/>
			<stop offset="1" stop-color="#084f15" stop-opacity="1"/>
		</linearGradient>
		<linearGradient id="g30" x2="1" gradientUnits="userSpaceOnUse" gradientTransform="matrix(0,36.498,-37.97,0,978.8,678.163)">
			<stop offset="0" stop-color="#084f15" stop-opacity="0"/>
			<stop offset="1" stop-color="#084f15" stop-opacity="1"/>
		</linearGradient>
		<linearGradient id="g31" x2="1" gradientUnits="userSpaceOnUse" gradientTransform="matrix(0,15.284,-27.02,0,991.8,699.377)">
			<stop offset="0" stop-color="#084f15" stop-opacity="0"/>
			<stop offset="1" stop-color="#084f15" stop-opacity="1"/>
		</linearGradient>
		<linearGradient id="g32" x2="1" gradientUnits="userSpaceOnUse" gradientTransform="matrix(0,468.931,-6358.386,0,319.869,426.786)">
			<stop offset=".278" stop-color="#eeef99"/>
			<stop offset=".77" stop-color="#b9d079"/>
		</linearGradient>
		<clipPath clipPathUnits="userSpaceOnUse" id="cp6">
			<path d="m1290 707h-1296v95.58h1296z"/>
		</clipPath>
		<linearGradient id="g33" x2="1" gradientUnits="userSpaceOnUse" gradientTransform="matrix(0,212.316,-1039.168,0,716.755,711.737)">
			<stop offset="0" stop-color="#ffffff" stop-opacity="1"/>
			<stop offset="1" stop-color="#ffffff" stop-opacity="0"/>
		</linearGradient>
		<linearGradient id="g34" x2="1" gradientUnits="userSpaceOnUse" gradientTransform="matrix(0,210.218,-1831.41,0,640.785,648.774)">
			<stop offset=".164" stop-color="#82a637"/>
			<stop offset=".891" stop-color="#1b8877"/>
		</linearGradient>
		<linearGradient id="g35" x2="1" gradientUnits="userSpaceOnUse" gradientTransform="matrix(.078,355.733,-355.577,.078,56.584,-98.468)">
			<stop offset="0" stop-color="#ffffff" stop-opacity="1"/>
			<stop offset="1" stop-color="#ffffff" stop-opacity="0"/>
		</linearGradient>
		<linearGradient id="g36" x2="1" gradientUnits="userSpaceOnUse" gradientTransform="matrix(0,164.194,-201.269,0,86.848,316.444)">
			<stop offset="0" stop-color="#d3d86c"/>
			<stop offset="1" stop-color="#82a637"/>
		</linearGradient>
		<linearGradient id="g37" x2="1" gradientUnits="userSpaceOnUse" gradientTransform="matrix(0,155.067,-310.474,0,117,644.593)">
			<stop offset="0" stop-color="#d3d86c"/>
			<stop offset="1" stop-color="#82a637"/>
		</linearGradient>
		<linearGradient id="g38" x2="1" gradientUnits="userSpaceOnUse" gradientTransform="matrix(0,271.493,-534.45,0,210.075,682.397)">
			<stop offset="0" stop-color="#084f15" stop-opacity="0"/>
			<stop offset="1" stop-color="#084f15" stop-opacity="1"/>
		</linearGradient>
		<linearGradient id="g39" x2="1" gradientUnits="userSpaceOnUse" gradientTransform="matrix(0,134.947,-113.318,0,32.095,636.912)">
			<stop offset=".422" stop-color="#2ca77f"/>
			<stop offset="1" stop-color="#1b8877"/>
		</linearGradient>
		<linearGradient id="g40" x2="1" gradientUnits="userSpaceOnUse" gradientTransform="matrix(0,-692,1111.525,0,892.272,462)">
			<stop offset="0" stop-color="#ffedba" stop-opacity="0"/>
			<stop offset="1" stop-color="#eb2a24" stop-opacity="1"/>
		</linearGradient>
		<linearGradient id="g41" x2="1" gradientUnits="userSpaceOnUse" gradientTransform="matrix(.16,352,-351.849,.16,974.55,51.438)">
			<stop offset="0" stop-color="#ffffff" stop-opacity="1"/>
			<stop offset="1" stop-color="#ffffff" stop-opacity="0"/>
		</linearGradient>
		<linearGradient id="g42" x2="1" gradientUnits="userSpaceOnUse" gradientTransform="matrix(.113,257.436,-257.325,.113,736.452,379.575)">
			<stop offset="0" stop-color="#ffffff" stop-opacity="1"/>
			<stop offset="1" stop-color="#ffffff" stop-opacity="0"/>
		</linearGradient>
		<linearGradient id="g43" x2="1" gradientUnits="userSpaceOnUse" gradientTransform="matrix(-5.34,-54.965,67.014,-6.511,1053.21,633.586)">
			<stop offset="0" stop-color="#ffb3b6"/>
			<stop offset="1" stop-color="#ffc8c1"/>
		</linearGradient>
		<linearGradient id="g44" x2="1" gradientUnits="userSpaceOnUse" gradientTransform="matrix(0,299.856,-52.775,0,1058.72,597.301)">
			<stop offset="0" stop-color="#f4a984"/>
			<stop offset="1" stop-color="#ee4d47"/>
		</linearGradient>
		<linearGradient id="g45" x2="1" gradientUnits="userSpaceOnUse" gradientTransform="matrix(.22,-63.582,47.734,.165,1084.22,541.091)">
			<stop offset="0" stop-color="#ffb3b6"/>
			<stop offset="1" stop-color="#ffc8c1"/>
		</linearGradient>
		<linearGradient id="g46" x2="1" gradientUnits="userSpaceOnUse" gradientTransform="matrix(-6.33,-44.866,38.506,-5.433,1110.19,509.062)">
			<stop offset="0" stop-color="#ffb3b6"/>
			<stop offset="1" stop-color="#ffc8c1"/>
		</linearGradient>
		<linearGradient id="g47" x2="1" gradientUnits="userSpaceOnUse" gradientTransform="matrix(0,292.728,-87.926,0,1114.26,599.09)">
			<stop offset="0" stop-color="#f4a984"/>
			<stop offset="1" stop-color="#ee4d47"/>
		</linearGradient>
		<linearGradient id="g48" x2="1" gradientUnits="userSpaceOnUse" gradientTransform="matrix(-1.39,-10.667,10.022,-1.306,1108.92,499.029)">
			<stop offset="0" stop-color="#ffb3b6"/>
			<stop offset="1" stop-color="#ffc8c1"/>
		</linearGradient>
		<linearGradient id="g49" x2="1" gradientUnits="userSpaceOnUse" gradientTransform="matrix(0,28.658,-56.886,0,921.846,906.091)">
			<stop offset="0" stop-color="#f4a984"/>
			<stop offset="1" stop-color="#ee4d47"/>
		</linearGradient>
		<linearGradient id="g50" x2="1" gradientUnits="userSpaceOnUse" gradientTransform="matrix(0,39.118,-82.042,0,825.852,895.771)">
			<stop offset="0" stop-color="#f4a984"/>
			<stop offset="1" stop-color="#ee4d47"/>
		</linearGradient>
		<linearGradient id="g51" x2="1" gradientUnits="userSpaceOnUse" gradientTransform="matrix(0,318.181,-160.875,0,857.909,595.949)">
			<stop offset="0" stop-color="#822626"/>
			<stop offset=".944" stop-color="#402b2b"/>
		</linearGradient>
		<linearGradient id="g52" x2="1" gradientUnits="userSpaceOnUse" gradientTransform="matrix(0,179.223,-120.82,0,874.707,497.377)">
			<stop offset="0" stop-color="#f4a984"/>
			<stop offset="1" stop-color="#ee4d47"/>
		</linearGradient>
		<linearGradient id="g53" x2="1" gradientUnits="userSpaceOnUse" gradientTransform="matrix(19.084,8.231,-6.654,15.427,864.141,531.358)">
			<stop offset="0" stop-color="#ffb3b6"/>
			<stop offset="1" stop-color="#ffc8c1"/>
		</linearGradient>
		<linearGradient id="g54" x2="1" gradientUnits="userSpaceOnUse" gradientTransform="matrix(19.192,8.128,-5.204,12.289,863.764,521.891)">
			<stop offset="0" stop-color="#ffb3b6" stop-opacity=".31"/>
			<stop offset="1" stop-color="#ffc8c1" stop-opacity="1"/>
		</linearGradient>
		<linearGradient id="g55" x2="1" gradientUnits="userSpaceOnUse" gradientTransform="matrix(-4.082,-36.478,35.729,-3.998,904.03,517.192)">
			<stop offset="0" stop-color="#ffb3b6"/>
			<stop offset="1" stop-color="#ffc8c1"/>
		</linearGradient>
		<linearGradient id="g56" x2="1" gradientUnits="userSpaceOnUse" gradientTransform="matrix(0,54.859,-86.901,0,871.647,423.769)">
			<stop offset="0" stop-color="#f4a984"/>
			<stop offset="1" stop-color="#ee4d47"/>
		</linearGradient>
		<linearGradient id="g57" x2="1" gradientUnits="userSpaceOnUse" gradientTransform="matrix(0,57.031,-145.5,0,870.214,452.557)">
			<stop offset="0" stop-color="#f4a984"/>
			<stop offset="1" stop-color="#ee4d47"/>
		</linearGradient>
		<linearGradient id="g58" x2="1" gradientUnits="userSpaceOnUse" gradientTransform="matrix(97.768,32.59,-17.804,53.41,844.143,599.208)">
			<stop offset="0" stop-color="#ffb3b6"/>
			<stop offset="1" stop-color="#ffc8c1"/>
		</linearGradient>
		<linearGradient id="g59" x2="1" gradientUnits="userSpaceOnUse" gradientTransform="matrix(0,67.894,-39.926,0,842.873,523.71)">
			<stop offset="0" stop-color="#f4a984"/>
			<stop offset="1" stop-color="#ee4d47"/>
		</linearGradient>
	</defs>
	<style>
		.s0 { fill: url(#g1) } 
		.s1 { fill: url(#g2) } 
		.s2 { fill: url(#g3) } 
		.s3 { fill: url(#g4) } 
		.s4 { opacity: .2;fill: none;stroke: url(#g5);stroke-width: 2 } 
		.s5 { opacity: .3;fill: #c9d983 } 
		.s6 { fill: url(#g6) } 
		.s7 { opacity: .2;fill: none;stroke: url(#g7);stroke-width: 2 } 
		.s8 { fill: url(#g8) } 
		.s9 { opacity: .2;fill: none;stroke: url(#g9);stroke-width: 2 } 
		.s10 { opacity: .2;fill: #c9d983 } 
		.s11 { fill: #0c5e59 } 
		.s12 { fill: url(#g10) } 
		.s13 { fill: url(#g11) } 
		.s14 { fill: #f9f8ef } 
		.s15 { fill: url(#g12) } 
		.s16 { fill: url(#g13) } 
		.s17 { opacity: .3;fill: url(#g14) } 
		.s18 { opacity: .3;fill: url(#g15) } 
		.s19 { opacity: .3;fill: url(#g16) } 
		.s20 { opacity: .3;fill: url(#g17) } 
		.s21 { opacity: .3;fill: url(#g18) } 
		.s22 { opacity: .3;fill: url(#g19) } 
		.s23 { opacity: .3;fill: url(#g20) } 
		.s24 { fill: url(#g21) } 
		.s25 { fill: #084f15 } 
		.s26 { fill: url(#g22) } 
		.s27 { opacity: .3;fill: url(#g23) } 
		.s28 { opacity: .3;fill: url(#g24) } 
		.s29 { opacity: .3;fill: url(#g25) } 
		.s30 { opacity: .3;fill: url(#g26) } 
		.s31 { opacity: .3;fill: url(#g27) } 
		.s32 { opacity: .3;fill: url(#g28) } 
		.s33 { opacity: .3;fill: url(#g29) } 
		.s34 { opacity: .3;fill: url(#g30) } 
		.s35 { opacity: .3;fill: url(#g31) } 
		.s36 { fill: url(#g32) } 
		.s37 { opacity: .7;fill: url(#g33) } 
		.s38 { opacity: .1;fill: url(#g34) } 
		.s39 { opacity: .2;fill: url(#g35) } 
		.s40 { fill: url(#g36) } 
		.s41 { fill: url(#g37) } 
		.s42 { fill: url(#g38) } 
		.s43 { fill: url(#g39) } 
		.s44 { opacity: .2;fill: #ffffff } 
		.s45 { fill: #ffffff } 
		.s46 { fill: url(#g40) } 
		.s47 { opacity: .56;fill: url(#g41) } 
		.s48 { opacity: .2;fill: url(#g42) } 
		.s49 { fill: #f4f6d5 } 
		.s50 { fill: url(#g43) } 
		.s51 { fill: #ffedba } 
		.s52 { opacity: .3;fill: #ed6b57 } 
		.s53 { fill: #ffc3bd } 
		.s54 { fill: #14365b } 
		.s55 { fill: #f29994 } 
		.s56 { fill: url(#g44) } 
		.s57 { fill: url(#g45) } 
		.s58 { fill: #0f264c } 
		.s59 { fill: url(#g46) } 
		.s60 { fill: #4b2a2a } 
		.s61 { opacity: .29;mix-blend-mode: multiply;fill: #ee4d47 } 
		.s62 { fill: url(#g47) } 
		.s63 { fill: #ed847e } 
		.s64 { fill: #d3d86c } 
		.s65 { fill: url(#g48) } 
		.s66 { fill: #9fc6ff } 
		.s67 { fill: #f18069 } 
		.s68 { fill: #6a2828 } 
		.s69 { fill: #6b1912 } 
		.s70 { fill: #d88d6c } 
		.s71 { fill: url(#g49) } 
		.s72 { fill: #c73e39 } 
		.s73 { fill: url(#g50) } 
		.s74 { fill: url(#g51) } 
		.s75 { opacity: .45;mix-blend-mode: multiply;fill: #402b2b } 
		.s76 { fill: #d1402c } 
		.s77 { fill: url(#g52) } 
		.s78 { fill: url(#g53) } 
		.s79 { mix-blend-mode: multiply;fill: url(#g54) } 
		.s80 { fill: #402b2b } 
		.s81 { fill: url(#g55) } 
		.s82 { fill: #893d43 } 
		.s83 { fill: #fffeff } 
		.s84 { fill: url(#g56) } 
		.s85 { fill: url(#g57) } 
		.s86 { fill: #d87c60 } 
		.s87 { fill: #8c5e5e } 
		.s88 { fill: #694646 } 
		.s89 { fill: #a3774a } 
		.s90 { fill: #f4a984 } 
		.s91 { fill: url(#g58) } 
		.s92 { fill: url(#g59) } 
	</style>
	<path class="s0" d="m1285-2h-1285v800h1185c55.23 0 100-44.77 100-100z"/>
	<g id="Clip-Path" clip-path="url(#cp1)">
		<g>
			<path class="s1" d="m1325.57 342.52h-10.83c-2.24 0-4.06 1.82-4.06 4.07v244.27c0 3.09-2.5 5.59-5.59 5.59-3.08 0-5.58-2.5-5.58-5.59v-156.06c0-5.53-4.48-10-10-10h-10.46c-5.52 0-10 4.47-10 10v9.79c0 5.52-4.48 10-10 10h-65.98c-4.21 0-7.62 3.41-7.62 7.62v4.23c0 1.87-1.51 3.39-3.38 3.39-1.87 0-3.39 1.51-3.39 3.38v54.34c0 4.58-3.71 8.3-8.29 8.3-4.58 0-8.29 3.71-8.29 8.29v36.21c0 5.53-4.48 10-10 10h-0.99c-5.52 0-10 4.48-10 10v52.98c0 2.06-1.66 3.72-3.72 3.72-2.06 0-3.72-1.67-3.72-3.72v-307.08c0-1.68-1.37-3.05-3.05-3.05-1.68 0-3.05-1.36-3.05-3.04v-26.92c0-2.9-2.34-5.25-5.24-5.25-2.9 0-5.25-2.35-5.25-5.25v-26.07c0-1.96-1.59-3.55-3.55-3.55-1.96 0-3.55-1.59-3.55-3.56v-21.31c0-5.53-4.48-10-10-10h-25.36c-5.52 0-10 4.47-10 10v21.31c0 1.97-1.59 3.56-3.55 3.56-1.96 0-3.56 1.59-3.56 3.55v26.07c0 2.9-2.34 5.25-5.24 5.25-2.9 0-5.25 2.35-5.25 5.25v27.08c0 1.41-1.13 2.54-2.54 2.54-1.4 0-2.53 1.14-2.53 2.54v209.24c0 3.27-2.66 5.92-5.93 5.92-3.27 0-5.92 2.65-5.92 5.92v83.29c0 4.02-3.26 7.28-7.28 7.28h-6.6c-0.37 0-0.67-0.3-0.67-0.68 0-0.37-0.31-0.67-0.68-0.67h-2.2c-0.65 0-1.18-0.53-1.18-1.19 0-0.65 0.53-1.18 1.18-1.18h1.18c0.94 0 1.7-0.76 1.7-1.7 0-0.93-0.76-1.69-1.7-1.69h-1.01c-0.75 0-1.35-0.6-1.35-1.35 0-0.75 0.6-1.36 1.35-1.36h1.01c0.94 0 1.7-0.75 1.7-1.69 0-0.94-0.76-1.69-1.7-1.69h-1.18c-0.65 0-1.18-0.53-1.18-1.19 0-0.65 0.53-1.18 1.18-1.18h1.18c0.94 0 1.7-0.76 1.7-1.7 0-0.93-0.76-1.69-1.7-1.69h-1.18c-0.65 0-1.18-0.53-1.18-1.18 0-0.66 0.53-1.19 1.18-1.19h1.18c0.94 0 1.7-0.76 1.7-1.69 0-0.94-0.76-1.69-1.7-1.69h-1.18c-0.65 0-1.18-0.53-1.18-1.19 0-0.65 0.53-1.18 1.18-1.18h1.18c0.94 0 1.7-0.76 1.7-1.7 0-0.93-0.76-1.69-1.7-1.69h-1.18c-0.65 0-1.18-0.53-1.18-1.18 0-0.66 0.53-1.19 1.18-1.19h1.18c0.94 0 1.7-0.76 1.7-1.69 0-0.94-0.76-1.69-1.7-1.69h-1.18c-0.65 0-1.18-0.54-1.18-1.19 0-0.65 0.53-1.18 1.18-1.18h1.18c0.94 0 1.7-0.76 1.7-1.7 0-0.93-0.76-1.69-1.7-1.69h-1.18c-0.65 0-1.18-0.53-1.18-1.19 0-0.65 0.53-1.18 1.18-1.18h1.18c0.94 0 1.7-0.76 1.7-1.69 0-0.94-0.76-1.7-1.7-1.7h-1.18c-0.65 0-1.18-0.53-1.18-1.18 0-0.65 0.53-1.19 1.18-1.19h1.18c0.94 0 1.7-0.75 1.7-1.69 0-0.93-0.76-1.69-1.7-1.69h-1.18c-0.65 0-1.18-0.53-1.18-1.19 0-0.65 0.53-1.18 1.18-1.18h1.18c0.94 0 1.7-0.76 1.7-1.69 0-0.94-0.76-1.7-1.7-1.7h-0.33c-1.13 0-2.03-0.91-2.03-2.03v-0.68c0-1.12 0.9-2.03 2.03-2.03h0.33c0.94 0 1.7-0.76 1.7-1.69 0-0.94-0.76-1.69-1.7-1.69h-1.18c-0.65 0-1.18-0.53-1.18-1.19 0-0.65 0.53-1.18 1.18-1.18h1.18c0.94 0 1.7-0.76 1.7-1.7 0-0.93-0.76-1.69-1.7-1.69h-1.18c-0.65 0-1.18-0.53-1.18-1.18 0-0.66 0.53-1.19 1.18-1.19h1.18c0.94 0 1.7-0.76 1.7-1.69 0-0.94-0.76-1.69-1.7-1.69h-1.18c-0.65 0-1.18-0.54-1.18-1.19 0-0.65 0.53-1.18 1.18-1.18h1.18c0.94 0 1.7-0.76 1.7-1.7 0-0.93-0.76-1.69-1.7-1.69h-1.18c-0.65 0-1.18-0.53-1.18-1.18 0-0.66 0.53-1.19 1.18-1.19h1.18c0.94 0 1.7-0.76 1.7-1.69 0-0.94-0.76-1.7-1.7-1.7h-1.18c-0.65 0-1.18-0.53-1.18-1.18 0-0.65 0.53-1.19 1.18-1.19h1.18c0.94 0 1.7-0.75 1.7-1.69 0-0.93-0.76-1.69-1.7-1.69h-1.18c-0.65 0-1.18-0.53-1.18-1.19 0-0.65 0.53-1.18 1.18-1.18h1.18c0.94 0 1.7-0.76 1.7-1.69 0-0.94-0.76-1.7-1.7-1.7h-1.18c-0.65 0-1.18-0.53-1.18-1.18 0-0.66 0.53-1.19 1.18-1.19h1.18c0.94 0 1.7-0.75 1.7-1.69 0-0.93-0.76-1.69-1.7-1.69h-1.18c-0.65 0-1.18-0.53-1.18-1.19 0-0.65 0.53-1.18 1.18-1.18h1.18c0.94 0 1.7-0.76 1.7-1.69 0-0.94-0.76-1.7-1.7-1.7h-1.18c-0.65 0-1.18-0.53-1.18-1.18 0-0.66 0.53-1.19 1.18-1.19h1.18c0.94 0 1.7-0.76 1.7-1.69 0-0.94-0.76-1.69-1.7-1.69h-1.18c-0.65 0-1.18-0.53-1.18-1.19 0-0.65 0.53-1.18 1.18-1.18h1.18c0.94 0 1.7-0.76 1.7-1.7 0-0.93-0.76-1.69-1.7-1.69h-1.18c-0.65 0-1.18-0.53-1.18-1.18 0-0.66 0.53-1.19 1.18-1.19h1.18c0.94 0 1.7-0.76 1.7-1.69 0-0.94-0.76-1.69-1.7-1.69h-1.18c-0.65 0-1.18-0.53-1.18-1.19 0-0.65 0.53-1.18 1.18-1.18h1.18c0.94 0 1.7-0.76 1.7-1.7 0-0.93-0.76-1.69-1.7-1.69h-0.33c-1.13 0-2.03-0.91-2.03-2.03v-1.36c0-1.12 0.9-2.03 2.03-2.03h0.33c0.94 0 1.7-0.76 1.7-1.69 0-0.93-0.76-1.69-1.7-1.69h-1.18c-0.65 0-1.18-0.53-1.18-1.19 0-0.65 0.53-1.18 1.18-1.18h1.18c0.94 0 1.7-0.76 1.7-1.7 0-0.93-0.76-1.69-1.7-1.69h-1.18c-0.65 0-1.18-0.53-1.18-1.18 0-0.66 0.53-1.19 1.18-1.19h1.18c0.94 0 1.7-0.76 1.7-1.69 0-0.94-0.76-1.69-1.7-1.69h-1.18c-0.65 0-1.18-0.54-1.18-1.19 0-0.65 0.53-1.18 1.18-1.18h1.18c0.94 0 1.7-0.76 1.7-1.7 0-0.93-0.76-1.69-1.7-1.69h-0.33c-1.13 0-2.03-0.91-2.03-2.03v-2.2c0-0.84-0.69-1.53-1.53-1.53-0.84 0-1.52-0.68-1.52-1.52v-2.2c0-2.06-1.67-3.72-3.72-3.72h-0.34c-2.25 0-4.06-1.82-4.06-4.07v-10.83c0-1.68-1.37-3.05-3.05-3.05-1.68 0-3.05-1.36-3.05-3.04v-11.59c0-4.7-3.27-8.77-7.86-9.77l-10.75-2.34c-2.58-0.6-4.4-2.89-4.4-5.54v-31.54c0-0.65-0.53-1.18-1.19-1.18-0.65 0-1.18 0.53-1.18 1.18v31.9c0 1.96-1.82 3.41-3.72 2.97-1.91-0.43-3.73 1.02-3.73 2.98v23.43c0 1.41-1.13 2.54-2.53 2.54-1.41 0-2.54 1.14-2.54 2.54v11.34c0 2.25-1.82 4.07-4.06 4.07h-0.85c-1.77 0-3.21 1.44-3.21 3.21v1.7c0 0.84-0.69 1.52-1.53 1.52-0.84 0-1.52 0.68-1.52 1.52v1.36c0 1.59-1.29 2.87-2.88 2.87h-29.77c-5.52 0-10 4.48-10 10v17.58c0 5.53-4.47 10-10 10h-24.67c-1.24 0-2.47 0.24-3.63 0.69l-30.4 11.84c-1.02 0.41-1.69 1.4-1.69 2.5v11.72c0 1.5 1.21 2.71 2.7 2.71h0.68c1.12 0 2.03 0.91 2.03 2.03 0 1.12-0.91 2.03-2.03 2.03h-1.35c-1.12 0-2.03 0.91-2.03 2.03 0 1.13 0.91 2.04 2.03 2.04h1.35c1.12 0 2.03 0.91 2.03 2.03 0 1.12-0.91 2.03-2.03 2.03h-1.35c-1.12 0-2.03 0.91-2.03 2.03 0 1.12 0.91 2.03 2.03 2.03h1.35c1.12 0 2.03 0.91 2.03 2.03 0 1.13-0.91 2.03-2.03 2.03h-1.35c-1.12 0-2.03 0.91-2.03 2.04 0 1.12 0.91 2.03 2.03 2.03h1.35c1.12 0 2.03 0.91 2.03 2.03 0 1.12-0.91 2.03-2.03 2.03h-1.35c-1.12 0-2.03 0.91-2.03 2.03 0 1.12 0.91 2.03 2.03 2.03h1.86c0.84 0 1.52 0.68 1.52 1.53 0 0.84-0.68 1.52-1.52 1.52h-30.78c-4.18 0-7.92-2.6-9.38-6.52l-8.05-21.74c-1.4-3.77-6.75-3.77-8.14 0.01-1.7 4.62-8.82 3.29-8.81-1.62q0.01-5.04 0.01-10.08-0.01-7.11 0-14.22c0-13.54 0-27.09-0.34-40.63 0-5.75-0.34-11.85-0.34-17.6-0.34-12.53-0.68-25.06-1.36-37.92-0.33-6.1-0.33-12.19-0.67-18.29-0.68-11.85-1.02-23.36-1.69-35.21 0-1.35-0.34-2.71-0.34-4.06-0.68-10.5-1.36-20.65-2.03-31.15-1.36-18.96-3.05-37.92-4.74-56.88q-0.2-2.6-0.47-5.28c-0.53-5.23-4.95-9.27-10.2-9.27h-63.42c-4.85 0-9.17 3.61-9.17 8.46q-0.51 6.09-1.02 12.19c-0.34 3.38-0.67 7.11-1.01 10.49-0.68 6.44-1.02 12.87-1.69 19.3-0.34 3.05-0.34 5.76-0.68 8.8-0.34 5.42-0.68 10.84-1.35 16.26-0.34 2.37-0.34 4.74-0.34 6.77-0.34 7.11-1.02 14.22-1.36 20.99 0 2.37-0.34 4.74-0.34 7.11-0.33 7.45-0.67 14.56-1.01 22 0 1.7-0.34 3.05-0.34 4.74-0.34 6.78-0.68 13.89-1.01 20.66q0 2.03 0 4.06c-0.34 7.79-0.68 15.57-0.68 23.36 0 1.69 0 3.05 0 4.74-0.34 8.13-0.34 16.25-0.68 24.04v1.01c0 8.13-0.34 16.26-0.34 24.04q0 1.53 0 3.05 0 12.19 0 24.38c0 1.01 0 2.37 0 3.38q0 3.61 0 7.28c0 4.02-3.25 7.28-7.27 7.28-4.02 0-7.28 3.26-7.28 7.28v81.26c0 4.76-3.86 8.63-8.63 8.63h-7.79c-0.46 0-0.84-0.38-0.84-0.85 0-0.47 0.38-0.84 0.84-0.84h0.68c0.84 0 1.52-0.69 1.52-1.53v-0.67c0-0.85-0.68-1.53-1.52-1.53-0.84 0-1.52-0.68-1.52-1.52v-1.36c0-0.84 0.68-1.52 1.52-1.52 0.84 0 1.52-0.68 1.52-1.52v-0.68c0-0.84-0.68-1.52-1.52-1.52-0.84 0-1.52-0.69-1.52-1.53v-1.69c0-0.84 0.68-1.52 1.52-1.52 0.84 0 1.52-0.69 1.52-1.53v-0.67c0-0.85-0.68-1.53-1.52-1.53-0.84 0-1.52-0.68-1.52-1.52v-1.7c0-0.84 0.68-1.52 1.52-1.52 0.84 0 1.52-0.68 1.52-1.52v-0.68c0-0.84-0.68-1.52-1.52-1.52-0.84 0-1.52-0.68-1.52-1.52v-1.7c0-0.84 0.68-1.52 1.52-1.52 0.84 0 1.52-0.68 1.52-1.52v-0.68c0-0.84-0.68-1.53-1.52-1.53-0.84 0-1.52-0.68-1.52-1.52v-1.69c0-0.84 0.68-1.53 1.52-1.53 0.84 0 1.52-0.68 1.52-1.52v-0.68c0-0.84-0.68-1.52-1.52-1.52-0.84 0-1.52-0.68-1.52-1.52v-1.7c0-0.84 0.68-1.52 1.52-1.52 0.84 0 1.52-0.68 1.52-1.52v-0.68c0-0.84-0.68-1.52-1.52-1.52-0.84 0-1.52-0.69-1.52-1.53v-1.69c0-0.84 0.68-1.53 1.52-1.53 0.84 0 1.52-0.68 1.52-1.52v-0.68c0-0.84-0.68-1.52-1.52-1.52-0.84 0-1.52-0.68-1.52-1.52v-1.7c0-0.84 0.68-1.52 1.52-1.52 0.84 0 1.52-0.68 1.52-1.52v-0.68c0-0.84-0.68-1.52-1.52-1.52-0.84 0-1.52-0.69-1.52-1.53v-1.69c0-0.84 0.68-1.52 1.52-1.52 0.84 0 1.52-0.69 1.52-1.53v-0.67c0-0.85-0.68-1.53-1.52-1.53-0.84 0-1.52-0.68-1.52-1.52v-1.69c0-0.85 0.68-1.53 1.52-1.53 0.84 0 1.52-0.68 1.52-1.52v-2.03c0-0.84-0.68-1.53-1.52-1.53-0.84 0-1.52-0.68-1.52-1.52v-1.69c0-0.84 0.68-1.53 1.52-1.53 0.84 0 1.52-0.68 1.52-1.52v-0.68c0-0.84-0.68-1.52-1.52-1.52-0.84 0-1.52-0.68-1.52-1.52v-2.04c0-0.84 0.68-1.52 1.52-1.52 0.84 0 1.52-0.68 1.52-1.52v-0.68c0-0.84-0.68-1.52-1.52-1.52-0.84 0-1.52-0.68-1.52-1.52v-1.7c0-0.84 0.68-1.52 1.52-1.52 0.84 0 1.52-0.68 1.52-1.53v-0.67c0-0.84-0.68-1.53-1.52-1.53-0.84 0-1.52-0.68-1.52-1.52v-1.69c0-0.84 0.68-1.53 1.52-1.53 0.84 0 1.52-0.68 1.52-1.52v-0.68c0-0.84-0.68-1.52-1.52-1.52-0.84 0-1.52-0.68-1.52-1.52v-1.7c0-0.84 0.68-1.52 1.52-1.52 0.84 0 1.52-0.68 1.52-1.52v-0.68c0-0.84-0.68-1.52-1.52-1.52-0.84 0-1.52-0.69-1.52-1.53v-1.69c0-0.84 0.68-1.53 1.52-1.53 0.84 0 1.52-0.68 1.52-1.52v-0.68c0-0.84-0.68-1.52-1.52-1.52-0.84 0-1.52-0.68-1.52-1.52v-1.7c0-0.84 0.68-1.52 1.52-1.52 0.84 0 1.52-0.68 1.52-1.52v-0.68c0-0.84-0.68-1.52-1.52-1.52-0.84 0-1.52-0.69-1.52-1.53v-1.69c0-0.84 0.68-1.52 1.52-1.52 0.84 0 1.52-0.69 1.52-1.53v-0.67c0-0.85-0.68-1.53-1.52-1.53-0.84 0-1.52-0.68-1.52-1.52v-1.69c0-0.85 0.68-1.53 1.52-1.53 0.84 0 1.52-0.68 1.52-1.52v-2.03c0-0.84-0.68-1.53-1.52-1.53-0.84 0-1.52-0.68-1.52-1.52v-1.69c0-0.84 0.68-1.53 1.52-1.53 0.84 0 1.52-0.68 1.52-1.52v-0.68c0-0.84-0.68-1.52-1.52-1.52-0.84 0-1.52-0.68-1.52-1.52v-1.7c0-0.84 0.68-1.52 1.52-1.52 0.84 0 1.52-0.68 1.52-1.52v-0.68c0-0.84-0.68-1.52-1.52-1.52-0.84 0-1.52-0.69-1.52-1.53v-1.69c0-0.84 0.68-1.52 1.52-1.52 0.84 0 1.52-0.69 1.52-1.53v-0.68c0-0.84-0.68-1.52-1.52-1.52-0.84 0-1.52-0.68-1.52-1.52v-5.42c0-0.84 0.68-1.52 1.52-1.52 0.84 0 1.52-0.68 1.52-1.53v-1.01c0-1.4-1.13-2.54-2.53-2.54h-4.91c-1.31 0-2.37-1.06-2.37-2.37v-0.56c0-1 0.81-1.81 1.81-1.81 1.49 0 2.35-1.7 1.46-2.89l-12.14-16.36c-1.45-1.95-3.73-3.1-6.15-3.1h-0.21c-4.11 0-7.45-3.33-7.45-7.44 0-0.75-0.67-1.63-0.67-2.37v-19.47c0-0.66-0.53-1.19-1.19-1.19-0.65 0-1.18 0.53-1.18 1.19v19.52c0 0.72-0.68 1.6-0.68 2.32 0 4.11-3.33 7.44-7.45 7.44h-0.21c-2.42 0-4.7 1.15-6.14 3.1l-12.82 17.26c-0.61 0.82-0.02 1.99 1.01 1.99 0.68 0 1.24 0.56 1.24 1.25v1.12c0 1.31-1.06 2.37-2.37 2.37h-4.9c-1.41 0-2.54 1.14-2.54 2.54v0.68c0 1.03 0.83 1.86 1.86 1.86 1.03 0 1.86 0.83 1.86 1.86v4.74c0 1.03-0.83 1.86-1.86 1.86-1.03 0-1.86 0.84-1.86 1.86 0 1.03 0.83 1.87 1.86 1.87 1.03 0 1.86 0.83 1.86 1.86v1.02c0 1.02-0.83 1.86-1.86 1.86-1.03 0-1.86 0.83-1.86 1.86 0 1.03 0.83 1.86 1.86 1.86 1.03 0 1.86 0.83 1.86 1.86v1.02c0 1.03-0.83 1.86-1.86 1.86-1.03 0-1.86 0.83-1.86 1.86 0 1.03 0.83 1.86 1.86 1.86 1.03 0 1.86 0.84 1.86 1.87v1.01c0 1.03-0.83 1.86-1.86 1.86-1.03 0-1.86 0.84-1.86 1.87 0 1.02 0.83 1.86 1.86 1.86 1.03 0 1.86 0.83 1.86 1.86v1.02c0 1.02-0.83 1.86-1.86 1.86-1.03 0-1.86 0.83-1.86 1.86 0 1.03 0.83 1.86 1.86 1.86 1.03 0 1.86 0.84 1.86 1.86v1.02c0 1.03-0.83 1.86-1.86 1.86-1.03 0-1.86 0.84-1.86 1.86 0 1.03 0.83 1.87 1.86 1.87 1.03 0 1.86 0.83 1.86 1.86v1.01c0 1.03-0.83 1.87-1.86 1.87-1.03 0-1.86 0.83-1.86 1.86 0 1.03 0.83 1.86 1.86 1.86 1.03 0 1.86 0.84 1.86 1.86v1.02c0 1.03-0.83 1.86-1.86 1.86-1.03 0-1.86 0.84-1.86 1.86 0 1.03 0.83 1.87 1.86 1.87 1.03 0 1.86 0.83 1.86 1.86v1.01c0 1.03-0.83 1.87-1.86 1.87-1.03 0-1.86 0.83-1.86 1.86 0 1.02 0.83 1.86 1.86 1.86 1.03 0 1.86 0.83 1.86 1.86v1.02c0 1.03-0.83 1.86-1.86 1.86-1.03 0-1.86 0.83-1.86 1.86 0 1.03 0.83 1.86 1.86 1.86 1.03 0 1.86 0.84 1.86 1.86v1.02c0 1.03-0.83 1.86-1.86 1.86-1.03 0-1.86 0.84-1.86 1.87 0 1.02 0.83 1.86 1.86 1.86 1.03 0 1.86 0.83 1.86 1.86v1.02c0 1.02-0.83 1.86-1.86 1.86-1.03 0-1.86 0.83-1.86 1.86 0 1.03 0.83 1.86 1.86 1.86 1.03 0 1.86 0.83 1.86 1.86v1.02c0 1.03-0.83 1.86-1.86 1.86-1.03 0-1.86 0.84-1.86 1.86 0 1.03 0.83 1.87 1.86 1.87 1.03 0 1.86 0.83 1.86 1.86v1.01c0 1.03-0.83 1.87-1.86 1.87-1.03 0-1.86 0.83-1.86 1.86 0 1.03 0.83 1.86 1.86 1.86h1.35c0.28 0 0.51 0.23 0.51 0.51 0 0.28-0.23 0.51-0.51 0.51h-17.77c-2.43 0-4.4-1.98-4.4-4.41v-3.72-4.74-3.72-4.74-3.73-4.74-3.72-4.74-3.73-4.74-3.72-4.74-3.73-4.73-3.73-4.74-3.72-4.74-3.73-4.74-3.72-4.74-3.73-4.4-3.72-4.74-3.72-4.74-3.73-4.74-3.72-4.4-3.73-4.74-3.72-4.74-3.73-4.74-3.72-4.74-3.73-4.74-3.72-4.74-3.72-4.74-3.73-4.74-3.72-4.74-3.73-4.74-3.72-4.74-3.72-4.74l-0.17-7.3c-0.1-4.16-2.77-7.83-6.71-9.2l-10.08-3.51c-3.29-1.14-6.73 1.3-6.73 4.78v1.55c0 1.94-1.57 3.52-3.52 3.52-1.97 0-3.55-1.62-3.51-3.59l0.44-21.96c0.09-4.66-3.05-8.77-7.57-9.9l-21.39-5.35c-6.01-1.5-11.92 2.76-12.4 8.94l-3.16 41.34-0.33 4.74-0.34 3.72-0.34 4.74-0.34 3.73-0.34 4.74-0.34 3.72-0.33 4.74-0.34 3.72-0.34 4.75-0.34 3.72-0.34 4.74-0.34 3.72-0.34 4.74-0.33 3.73-0.34 4.74-0.34 3.72-0.34 4.74-0.34 3.73-0.34 4.74-0.33 3.72-0.34 4.74-0.34 3.72-0.02 0.27c-0.2 2.84-1.61 5.47-3.88 7.21l-1.74 1.34c-2.23 1.72-3.62 4.29-3.84 7.1l-0.34 3.72-0.33 4.74-0.34 3.73-0.34 4.74-0.34 3.72-0.34 4.74-0.34 3.72-0.34 4.4c0 0.94-0.75 1.7-1.69 1.7h-27.9c-5.53 0-10 4.48-10 10v38.58c0 2.9-2.35 5.25-5.25 5.25-2.9 0-5.25 2.35-5.25 5.24v104.12c0 3.92-3.18 7.11-7.1 7.11-3.93 0-7.11-3.19-7.11-7.11v-416.1c0-1.5-1.21-2.71-2.71-2.71-1.49 0-2.71-1.21-2.71-2.71v-37.06c0-5.52-4.47-10-10-10h-57.5c-5.53 0-10 4.48-10 10v37.4c0 1.5-1.21 2.71-2.71 2.71-1.5 0-2.71 1.21-2.71 2.71v180.29c0 2.71-2.2 4.9-4.91 4.9h-3.89c-0.56 0-1.01 0.46-1.01 1.02v0.34c0 0.37-0.31 0.67-0.68 0.67-0.37 0-0.68 0.31-0.68 0.68v3.73c0 0.37 0.31 0.67 0.68 0.67 0.37 0 0.68 0.31 0.68 0.68v0.34c0 0.37-0.31 0.68-0.68 0.68-0.37 0-0.68 0.3-0.68 0.67v3.73c0 0.37 0.31 0.67 0.68 0.67 0.37 0 0.68 0.31 0.68 0.68v0.34c0 0.37-0.31 0.68-0.68 0.68-0.37 0-0.68 0.3-0.68 0.67v3.73c0 0.37 0.31 0.68 0.68 0.68 0.37 0 0.68 0.3 0.68 0.67v0.34c0 0.37-0.31 0.68-0.68 0.68-0.37 0-0.68 0.3-0.68 0.68v3.72c0 0.37 0.31 0.68 0.68 0.68 0.37 0 0.68 0.3 0.68 0.67v0.34c0 0.38-0.31 0.68-0.68 0.68-0.37 0-0.68 0.3-0.68 0.68v3.72c0 0.38 0.31 0.68 0.68 0.68 0.37 0 0.68 0.3 0.68 0.68v0.33c0 0.38-0.31 0.68-0.68 0.68-0.37 0-0.68 0.3-0.68 0.68v3.72c0 0.38 0.31 0.68 0.68 0.68 0.37 0 0.68 0.3 0.68 0.68v0.34c0 0.37-0.31 0.67-0.68 0.67-0.37 0-0.68 0.31-0.68 0.68v3.72c0 0.38 0.31 0.68 0.68 0.68 0.37 0 0.68 0.3 0.68 0.68v0.34c0 0.37-0.31 0.67-0.68 0.67-0.37 0-0.68 0.31-0.68 0.68v3.72c0 0.38 0.31 0.68 0.68 0.68 0.37 0 0.68 0.3 0.68 0.68v0.34c0 0.37-0.31 0.67-0.68 0.67-0.37 0-0.68 0.31-0.68 0.68v3.73c0 0.37 0.31 0.67 0.68 0.67 0.37 0 0.68 0.31 0.68 0.68v0.34c0 0.37-0.31 0.68-0.68 0.68-0.37 0-0.68 0.3-0.68 0.67v3.73c0 0.37 0.31 0.67 0.68 0.67 0.37 0 0.68 0.31 0.68 0.68v0.34c0 0.37-0.31 0.68-0.68 0.68-0.37 0-0.68 0.3-0.68 0.67v3.73c0 0.37 0.31 0.68 0.68 0.68 0.37 0 0.68 0.3 0.68 0.67v0.34c0 0.38-0.31 0.68-0.68 0.68-0.37 0-0.68 0.3-0.68 0.68v3.72c0 0.37 0.31 0.68 0.68 0.68 0.37 0 0.68 0.3 0.68 0.67v0.34c0 0.38-0.31 0.68-0.68 0.68-0.37 0-0.68 0.3-0.68 0.68v3.72c0 0.38 0.31 0.68 0.68 0.68 0.37 0 0.68 0.3 0.68 0.68v0.34c0 0.37-0.31 0.67-0.68 0.67-0.37 0-0.68 0.31-0.68 0.68v3.72c0 0.38 0.31 0.68 0.68 0.68 0.37 0 0.68 0.3 0.68 0.68v0.34c0 0.37-0.31 0.67-0.68 0.67-0.37 0-0.68 0.31-0.68 0.68v3.72c0 0.38 0.31 0.68 0.68 0.68 0.37 0 0.68 0.3 0.68 0.68v7.11c0 0.37-0.31 0.68-0.68 0.68-0.37 0-0.68 0.3-0.68 0.67v3.73c0 0.37 0.31 0.67 0.68 0.67 0.37 0 0.68 0.31 0.68 0.68v0.34c0 0.37-0.31 0.68-0.68 0.68-0.37 0-0.68 0.3-0.68 0.67v0.85c0 0.84-0.68 1.52-1.52 1.52h-11.15c-5.53 0-10-4.47-10-10v-91.38c0-5.53-4.48-10-10-10h-39.57c-5.52 0-10 4.47-10 10v53.14c0 4.77-3.87 8.63-8.63 8.63h-6.6c-1.12 0-2.03-0.91-2.03-2.03 0-1.12-0.91-2.03-2.03-2.03h-1.53c-1.96 0-3.55-1.59-3.55-3.55v-127.14-143.89c0-1.49-1.21-2.71-2.71-2.71-1.49 0-2.71-1.21-2.71-2.7v-73.63c0-5.52-4.47-10-10-10h-73.75c-5.52 0-10 4.48-10 10v73.63c0 1.49-1.21 2.7-2.7 2.7-1.5 0-2.71 1.22-2.71 2.71v358.21c0 3.55-2.88 6.43-6.43 6.43-3.55 0-6.43-2.88-6.43-6.43v-128.48c0-5.52-4.48-10-10-10h-2.68c-5.52 0-10-4.48-10-10v-50.6c0-2.06-1.67-3.73-3.72-3.73-2.06 0-3.73-1.66-3.73-3.72v-15.39c0-5.53-4.47-10-10-10h-85.59c-5.53 0-10 4.47-10 10v15.39c0 2.06-1.67 3.72-3.73 3.72-2.05 0-3.72 1.67-3.72 3.73v220.22c0 5.52-4.48 10-10 10h-4.37c-5.52 0-10-4.48-10-10v-131.34c0-5.52-4.47-10-10-10h-69.69c-5.52 0-10 4.48-10 10v75.66c0 5.42-4.39 9.82-9.81 9.82-5.42 0-9.82 4.39-9.82 9.81v77.2c0 3.18-2.57 5.76-5.75 5.76-3.18 0-5.76-2.58-5.76-5.76v-261.71-4.4c0-1.31-1.06-2.37-2.36-2.37h-1.36c-0.56 0-1.01-0.46-1.01-1.02 0-0.56 0.45-1.01 1.01-1.01h1.36c1.3 0 2.36-1.06 2.36-2.37v-2.04c0-1.3-1.06-2.36-2.36-2.36h-1.36c-0.56 0-1.01-0.46-1.01-1.02 0-0.56 0.45-1.02 1.01-1.02h1.36c1.3 0 2.36-1.06 2.36-2.37v-2.03c0-1.31-1.06-2.37-2.36-2.37h-1.36c-0.56 0-1.01-0.45-1.01-1.01 0-0.56 0.45-1.02 1.01-1.02h1.36c1.3 0 2.36-1.06 2.36-2.37v-2.03c0-1.31-1.06-2.37-2.36-2.37h-1.7c-0.37 0-0.67-0.3-0.67-0.68 0-0.37 0.3-0.67 0.67-0.67h1.86c1.41 0 2.54-1.14 2.54-2.54v-1.7c0-1.4-1.13-2.54-2.54-2.54h-1.52c-0.56 0-1.01-0.45-1.01-1.01 0-0.56 0.45-1.02 1.01-1.02h1.52c1.41 0 2.54-1.13 2.54-2.54v-1.69c0-1.4-1.13-2.54-2.54-2.54h-1.52c-0.56 0-1.01-0.45-1.01-1.01 0-0.57 0.45-1.02 1.01-1.02h1.52c1.41 0 2.54-1.14 2.54-2.54v-1.69c0-1.4-1.13-2.54-2.54-2.54h-1.52c-0.56 0-1.01-0.46-1.01-1.02 0-0.56 0.45-1.01 1.01-1.01h1.52c1.41 0 2.54-1.14 2.54-2.54v-17.94c0-3.29-1.65-6.33-4.11-8.5-10.14-8.93-24.36-28.01-24.66-54.31v-0.68-0.84c0-1.59-1.28-2.88-2.87-2.88h-1.02c-1.03 0-1.86 0.83-1.86 1.86 0 1.03-0.83 1.86-1.86 1.86h-2.2c-2.24 0-4.06-1.82-4.06-4.06v-53.32c0-0.85-0.68-1.53-1.52-1.53-0.85 0-1.53 0.68-1.53 1.53v56.88c0 0.46-0.38 0.84-0.84 0.84-0.47 0-0.85-0.38-0.85-0.84v-1.02c0-1.03-0.83-1.86-1.86-1.86h-2.37c-1.03 0-1.86 0.83-1.86 1.86 0 1.03-0.84 1.86-1.86 1.86h-7.11c-1.03 0-1.86-0.83-1.86-1.86 0-1.03-0.84-1.86-1.86-1.86h-1.19c-1.68 0-3.04 1.36-3.04 3.04v0.68c0 26.68-7.36 46-15.93 55.09-2.29 2.44-4.04 5.49-4.04 8.83v13.44c0 0.1 0.07 0.17 0.17 0.17 0.09 0 0.16 0.08 0.16 0.17v3.56c0 1.68 1.37 3.04 3.05 3.04h2.03c0.56 0 1.02 0.46 1.02 1.02 0 0.56-0.46 1.02-1.02 1.02h-2.03c-1.68 0-3.05 1.36-3.05 3.04v0.68c0 1.68 1.37 3.05 3.05 3.05h2.03c0.56 0 1.02 0.45 1.02 1.01 0 0.56-0.46 1.02-1.02 1.02h-2.2c-1.77 0-3.21 1.44-3.21 3.21v0.34c0 1.78 1.44 3.22 3.21 3.22h2.54c0.37 0 0.68 0.3 0.68 0.68 0 0.37-0.31 0.67-0.68 0.67h-2.54c-1.77 0-3.21 1.44-3.21 3.22v0.34c0 1.78 1.44 3.22 3.21 3.22h2.2c0.56 0 1.02 0.45 1.02 1.01 0 0.56-0.46 1.02-1.02 1.02h-2.2c-1.77 0-3.21 1.44-3.21 3.21v0.34c0 1.78 1.44 3.22 3.21 3.22h2.2c0.56 0 1.02 0.45 1.02 1.01 0 0.56-0.46 1.02-1.02 1.02h-2.2c-1.77 0-3.21 1.44-3.21 3.21v0.35c0 1.77 1.44 3.21 3.21 3.21h2.2c0.56 0 1.02 0.46 1.02 1.02 0 0.56-0.46 1.01-1.02 1.01h-2.2c-1.77 0-3.21 1.44-3.21 3.22v0.34c0 1.77 1.44 3.21 3.21 3.21h2.2c0.56 0 1.02 0.46 1.02 1.02 0 0.56-0.46 1.01-1.02 1.01h-2.37c-1.87 0-3.38 1.52-3.38 3.39v133.4c0 5.23-4.24 9.48-9.48 9.48-5.23 0-9.48 4.24-9.48 9.47v57.39c0 2.9-2.34 5.25-5.24 5.25-2.9 0-5.25 2.35-5.25 5.25v52.83c0 2.15-2.43 3.28-4.58 3.2-0.13 0-0.22-0.01-0.35-0.03q-0.18-0.02-0.37-0.05c-3.95-0.55-6.88-3.9-6.88-7.88v-122.3c0-3.96-2.34-7.55-5.97-9.15l-2.18-0.96q-0.31-0.13-0.65-0.13h-0.51c-1.4 0-2.54-1.14-2.54-2.54v-1.36c0-0.65-0.53-1.18-1.18-1.18-0.66 0-1.19 0.53-1.19 1.18 0 0.66-0.53 1.19-1.18 1.19h-0.15c-0.57 0-1.04 0.46-1.04 1.04 0 0.55-0.43 1.01-0.99 1.04l-3.86 0.19c-1.04 0.05-1.92-0.78-1.92-1.82 0-0.69-0.39-1.33-1-1.64l-0.92-0.45q-0.78-0.39-1.66-0.37l-19.8 0.59c-1.11 0.04-2 0.95-2 2.06 0 1.14-0.92 2.07-2.06 2.07h-0.31c-1.31 0-2.37 1.06-2.37 2.36v22.51c0 5.52-4.47 10-10 10h-17.57c-5.52 0-10-4.48-10-10v-158.27c0-2.43-1.97-4.4-4.4-4.4-2.43 0-4.4-1.97-4.4-4.4v-29.28c0-5.52-4.47-10-10-10h-15.04c-3.18 0-5.75-2.57-5.75-5.75 0-3.18-2.58-5.76-5.76-5.76h-3.89c-5.14 0-9.31-4.17-9.31-9.31 0-5.14-4.17-9.31-9.31-9.31h-57.52c-5.52 0-10 4.48-10 10v10.13c0 5.53-4.47 10-10 10h-18.58c-5.52 0-10 4.48-10 10v291.82c0 5.53-4.48 10-10 10h-0.98c-5.53 0-10 4.48-10 10v9.64c0 5.42-4.4 9.82-9.82 9.82-5.42 0-9.82-4.4-9.82-9.82v-73.96c0-5.53-4.47-10-10-10h-10.46c-5.52 0-10-4.48-10-10v-20.44c0-0.23-0.13-0.44-0.33-0.54-0.21-0.11-0.34-0.32-0.34-0.55v-3.55c0-1.4-0.47-2.77-1.33-3.88l-4.7-6.08c-1.36-1.75-2.1-3.9-2.1-6.12v-5.98c0-0.92-0.36-1.8-1.01-2.45-0.65-0.65-1.02-1.53-1.02-2.45v-14.65c0-0.28-0.22-0.51-0.5-0.51-0.28 0-0.51 0.23-0.51 0.51v14.89c0 0.76-0.31 1.5-0.85 2.04-0.54 0.54-0.84 1.28-0.84 2.04v7.5c0 2.05-0.63 4.06-1.81 5.74l-4.22 6.03c-0.7 1-1.08 2.2-1.08 3.42v1.98c0 0.76-0.38 1.48-1.02 1.9-0.63 0.42-1.01 1.13-1.01 1.89v0.87c0 1.23-0.64 2.36-1.69 2.99l-0.42 0.25c-0.79 0.48-1.28 1.33-1.28 2.26 0 0.96-0.52 1.84-1.37 2.3l-0.49 0.27c-1.15 0.63-1.86 1.83-1.86 3.14v31.03c0 3.83-3.3 6.82-7.11 6.46-3.36 0-6.09-2.73-6.09-6.09v-61.78c0-5.52-4.48-10-10-10h-21.63c-5.52 0-10 4.48-10 10v27.74c0 5.52-4.48 10-10 10h-6.4c-5.52 0-10 4.48-10 10v20.3c0 1.78-1.44 3.21-3.21 3.21-1.78 0-3.22 1.44-3.22 3.22v37.92c0 1.4-1.14 2.54-2.54 2.54-1.4 0-2.54-1.14-2.54-2.54v-16.08c0-1.87-1.51-3.39-3.38-3.39-1.87 0-3.38-1.51-3.38-3.38v-171.81c0-5.52-4.48-10-10-10h-47.88c-42.31 0-76.49 29.79-76.49 72.11v23.86c0 5.52-4.48 10-10 10h-3.88c-12.18 0-22 20.99-22 32.5v39.77c0 5.52-4.47 10-10 10h-15.87c-5.53 0-10-4.48-10-10v-37.56c0-5.52-4.48-10-10-10h-4.03c-5.53 0-10 4.48-10 10v87c0 2.9-2.35 5.25-5.25 5.25-2.9 0-5.25-2.35-5.25-5.25v-48.75c0-1.59-1.28-2.88-2.87-2.88-1.59 0-2.88-1.29-2.88-2.88v-32.49c0-5.52-4.48-10-10-10h-1.32c-5.52 0-10-4.47-10-10v-35.52c0-5.52-4.48-10-10-10h-26.37c-5.52 0-10 4.48-10 10v201.76c0 5.52 4.48 10 10 10h2470c5.52 0 10-4.48 10-10v-377.48c0-5.52-4.48-10-10-10zm-380.42 191.8c0 0.66-0.53 1.19-1.19 1.19h-2.2c-0.18 0-0.33-0.15-0.33-0.34v-0.85c0-0.65 0.53-1.18 1.18-1.18h1.35c0.66 0 1.19 0.53 1.19 1.18zm0-5.75c0 0.65-0.53 1.18-1.19 1.18h-1.35c-0.65 0-1.18-0.53-1.18-1.18 0-0.66 0.53-1.19 1.18-1.19h1.35c0.66 0 1.19 0.53 1.19 1.19zm0-6.1c0 0.66-0.53 1.19-1.19 1.19h-1.35c-0.65 0-1.18-0.53-1.18-1.19 0-0.65 0.53-1.18 1.18-1.18h1.35c0.66 0 1.19 0.53 1.19 1.18zm0-6.09c0 0.65-0.53 1.18-1.19 1.18h-1.35c-0.65 0-1.18-0.53-1.18-1.18 0-0.66 0.53-1.19 1.18-1.19h1.35c0.66 0 1.19 0.53 1.19 1.19zm0-6.1c0 0.66-0.53 1.19-1.19 1.19h-1.35c-0.65 0-1.18-0.53-1.18-1.19 0-0.65 0.53-1.18 1.18-1.18h1.35c0.66 0 1.19 0.53 1.19 1.18zm0-6.09c0 0.65-0.53 1.18-1.19 1.18h-1.35c-0.65 0-1.18-0.53-1.18-1.18 0-0.66 0.53-1.19 1.18-1.19h1.35c0.66 0 1.19 0.53 1.19 1.19zm0-5.76c0 0.66-0.53 1.19-1.19 1.19h-1.35c-0.65 0-1.18-0.53-1.18-1.19 0-0.65 0.53-1.18 1.18-1.18h1.35c0.66 0 1.19 0.53 1.19 1.18z"/>
			<path class="s2" d="m1098.89 493.5c-58.78 0-106.33 100.89-106.33 225.25h212.77c0-124.48-47.67-225.25-106.44-225.25z"/>
			<path class="s3" d="m1098.89 493.5c-58.78 0-106.33 100.89-106.33 225.25h212.77c0-124.48-47.67-225.25-106.44-225.25z"/>
			<g id="Clip-Path" clip-path="url(#cp2)">
				<g>
					<path class="s4" d="m1009.25 513.9c33.69-15.35 101.72-40.45 104.35-18.09 3.29 27.95-191.45 147.98-124.9 122.5 66.56-25.49 124.08-95.37 138.87-70.7 14.79 24.66-129.83 126.6-81.35 121.67 48.48-4.93 108.46-118.39 127.36-100.3 18.9 18.09-124.07 143.87-92.02 154.56 32.04 10.69 119.96-167.71 155.29-171.82"/>
				</g>
			</g>
			<path class="s5" d="m1191.54 718.75h13.79c0-124.48-47.67-225.25-106.44-225.25q-3.48 0-6.9 0.47c55.56 7.51 99.55 105.21 99.55 224.78z"/>
			<path class="s6" d="m1216.82 554.57c-43 0-77.81 73.84-77.81 164.83h155.63c-0.12-90.99-34.93-164.83-77.82-164.83z"/>
			<g id="Clip-Path" clip-path="url(#cp3)">
				<g>
					<path class="s7" d="m1192.37 517.14c-30.53 49.73-79.45 138.99-30.86 98.18 60.74-51.01 118.59-34.65 94.49 0-24.11 34.65-94.49 16.36-87.74 52.94 5.4 29.26 83.88-14.12 122.44-39.46"/>
				</g>
			</g>
			<path fill-rule="evenodd" class="s5" d="m1278.23 719.4h16.41c-0.12-90.99-34.93-164.83-77.82-164.83q-4.16 0.01-8.22 0.91c39.04 8.7 69.51 78.8 69.63 163.92z"/>
			<path class="s8" d="m910.48 474.46c-68.17 0-123.46 108.79-123.46 242.97h246.92c-0.13-134.18-55.3-242.97-123.46-242.97z"/>
			<g id="Clip-Path" clip-path="url(#cp4)">
				<g>
					<path class="s9" d="m797.53 523.49c13.01-15.36 42.24-42.72 55.06-29.32 16.04 16.75-18.12 74.68 4.19 81.66 22.3 6.98 53.67-102.6 80.86-92.13 27.18 10.47-117.11 180.08-66.92 186.36 50.19 6.28 73.19-145.18 94.8-134.71 21.61 10.47-48.8 92.13-24.4 115.87 24.4 23.73 36.95-87.95 56.46-75.39 19.52 12.57 5.58 75.39-13.24 117.96"/>
				</g>
			</g>
			<path class="s10" d="m1006.35 717.43h27.59c-0.13-134.18-55.3-242.97-123.46-242.97q-7 0-13.79 1.5c61.66 13.5 109.55 116.46 109.66 241.47z"/>
			<path class="s11" d="m1086.41 568.53h-2.29v147.7h2.29z"/>
			<path class="s12" d="m1101.91 559.17c-4.9 0-9.46 3.54-12.65 6.73 2.16-3.08 5.13-6.84 7.41-7.52 3.99-1.26 7.18-0.69 7.18-0.69 0 0-3.65-5.13-9.12-2.74-2.4 1.03-4.45 4.45-5.93 7.76 0.8-3.08 1.48-6.73 0.91-10.04-1.37-8.44-10.71-9.12-10.71-9.12 0 0 5.24 7.3 6.15 15.85 0.12 1.14 0.23 2.28 0.34 3.31-0.79-4.91-2.73-10.84-7.52-14.03-11.86-7.87-19.27 5.93-19.27 5.93 0 0 6.73-4.22 15.62 0.23 7.07 3.54 10.03 11.06 10.95 14.14-1.14-2.28-6.05-10.95-13.8-12.2-11.74-1.94-14.71 12.89-14.71 12.89 0 0 6.73-5.36 15.05-5.02 6.5 0.34 11.06 2.96 13.34 5.02-1.25-0.34-3.87-0.92-7.07-1.03-10.37-0.11-12.54 13.8-12.54 13.8l19.73-12.09c-0.92 1.6-2.63 5.02-3.54 7.3-1.37 3.2-0.45 10.38-0.45 10.38 0 0 3.19-5.48 4.1-9.01 0.91-3.42 0.68-6.96 0.57-8.67l13.34 14.49c0 0 3.3-8.79-6.84-13.01q-2.06-0.85-3.42-1.36c2.39 0.34 5.36 1.36 8.43 3.3 5.82 3.77 9.58 9.01 9.58 9.01 0 0 3.65-10.6-5.24-14.94-2.97-1.37-6.27-1.25-9.12-0.57 2.16-1.25 5.01-2.16 8.32-1.71 8.09 1.03 10.37 6.73 10.37 6.73 0 0 2.28-13.12-9.46-13.12z"/>
			<path class="s11" d="m999.42 477.74h-3.65v241.24h3.65z"/>
			<path class="s13" d="m1022.99 456.95c-8.9 0-17.3 6.38-23.15 12.25 3.94-5.61 9.42-12.38 13.61-13.78 7.13-2.3 13.11-1.15 13.11-1.15 0 0-6.75-9.44-16.67-4.98-4.45 1.92-8.14 8.17-10.81 14.17 1.52-5.62 2.54-12.25 1.65-18.38-2.42-15.32-19.59-16.59-19.59-16.59 0 0 9.54 13.27 11.32 28.97 0.26 2.04 0.38 4.08 0.51 6-1.53-9.06-5.09-19.91-13.74-25.65-21.5-14.3-34.98 10.97-34.98 10.97 0 0 12.34-7.66 28.49 0.51 12.73 6.38 18.2 20.3 19.98 25.78-2.17-4.21-10.94-19.91-25.19-22.33-21.37-3.57-26.84 23.61-26.84 23.61 0 0 12.21-9.83 27.35-9.19 11.7 0.51 20.22 5.36 24.42 9.19-2.16-0.64-7.12-1.79-12.85-1.79-18.95-0.25-22.9 25.15-22.9 25.15l36.01-22.08c-1.53 2.93-4.71 9.06-6.49 13.4-2.42 5.87-0.89 18.89-0.89 18.89 0 0 5.85-9.96 7.5-16.47 1.66-6.25 1.28-12.76 1.02-15.82l24.43 26.42c0 0 5.98-16.08-12.34-23.87-2.42-1.02-4.58-1.92-6.24-2.55 4.46 0.63 9.8 2.42 15.27 6 10.69 6.89 17.43 16.33 17.43 16.33 0 0 6.61-19.53-9.67-27.18-5.34-2.56-11.45-2.17-16.67-1.02 3.95-2.3 9.04-3.96 15.27-3.19 14.76 1.78 18.83 12.38 18.83 12.38 0 0 4.2-24.13-17.18-24z"/>
			<g id="Clip-Path" clip-path="url(#cp5)">
				<g>
					<path class="s14" d="m1315 670.18h-126.08v53.67h126.08z"/>
					<path fill-rule="evenodd" class="s15" d="m1252.66 656.19v0.12c1-2.8 3-7.25 6.37-13.89 6.69-12.72 14.15-22.49 14.15-22.49 0 0-3.27 10.85-9.95 23.57-5.91 11.39-9.15 15.98-10.57 16.67v0.65c1.71-2.26 5.48-6.13 12.12-12.2 11.04-9.93 21.93-17.06 21.93-17.06 0 0-7 9.15-18.04 19.23-6.47 5.83-10.76 9.32-13.43 11.12 2.72-1.7 6.96-4.01 13.12-7.09 13.68-6.82 26.12-11.01 26.12-11.01 0 0-9.64 6.98-23.32 13.81-10.42 5.31-16.06 7.57-18.5 8v0.47c2.19-1.22 7.8-3.18 18.5-6.15 15.08-4.19 28.29-6.05 28.29-6.05 0 0-11.5 5.12-26.58 9.31-4.92 1.36-8.84 2.37-11.92 3.07 3.12-0.52 7.14-1.08 12.23-1.67 16.01-2.02 29.38-1.87 29.38-1.87 0 0-12.59 3.42-28.6 5.28-12.9 1.62-19.24 1.84-21.3 1.37v0.33h-1.56v-0.22q-0.41 0.12-1.24 0.22h-4.51c-3.42-0.15-8.55-0.46-15.7-1.39-16.02-2.02-28.61-5.28-28.61-5.28 0 0 13.37-0.15 29.39 1.87 4.81 0.55 8.66 1.07 11.7 1.55-2.99-0.7-6.75-1.66-11.39-2.95-15.24-4.19-26.59-9.31-26.59-9.31 0 0 13.22 1.86 28.3 6.05 10.95 3.05 16.58 5.02 18.65 6.23v-0.54c-2.35-0.4-8.01-2.7-18.65-8.01-13.68-6.83-23.32-13.81-23.32-13.81 0 0 12.43 4.19 26.12 11.01 5.78 2.89 9.86 5.11 12.6 6.77-2.73-1.88-6.9-5.3-12.92-10.8-11.03-10.08-18.03-19.23-18.03-19.23 0 0 10.88 6.98 21.92 17.06 4.75 4.34 8.03 7.55 10.14 9.86-1.81-2.35-4.63-7.01-8.74-14.82-6.68-12.72-9.95-23.58-9.95-23.58 0 0 7.62 9.77 14.15 22.49 3.76 7.34 5.82 12.04 6.68 14.77v-1.46c-0.83-1.93-1.4-7.49-1.4-18.58 0-14.27 2.18-25.9 2.18-25.9 0 0 2.18 11.63 2.18 25.9 0 11.09-0.57 16.65-1.4 18.58zm-1.56 4.54q-0.34-0.02-0.91-0.54 0.54 0.64 0.91 1.15zm0 2.94q-0.57-0.14-1.48-0.66 0.88 0.6 1.48 1.07zm1.56-0.03q0.63-0.49 1.58-1.11-0.97 0.58-1.58 0.78zm-1.56 4.23q-0.74 0.06-2.14-0.11 1.48 0.38 2.14 0.71zm1.56 0.35q0.86-0.41 2.84-0.89-1.89 0.28-2.84 0.24zm-9.18 1.48h-29.07c4.51-0.31 9.95-0.46 15.7-0.46 5.6 0 10.11 0.15 13.37 0.46zm30.01-0.46c5.75-0.16 11.19 0.15 15.7 0.46h-29.07c3.26-0.15 7.62-0.31 13.37-0.46z"/>
				</g>
			</g>
			<path class="s16" d="m921.06 690.6c-2.28-10.5-6.04-20.42-11.06-29.55-0.68-1.25-1.48-2.62-2.28-3.87-5.81-9.7-13-18.37-21.32-25.9-1.02-1.02-2.16-1.93-3.3-2.85-8.9-7.41-19.04-13.46-29.99-17.79-1.37-0.57-2.73-1.03-4.1-1.48-10.95-3.88-22.8-6.05-35-6.28-0.69 0-1.48 0-2.17 0-0.68 0-1.48 0-2.16 0-12.32 0.23-24.06 2.4-35 6.28-1.37 0.45-2.74 1.02-4.11 1.48-10.94 4.33-21.09 10.38-29.98 17.79-1.14 0.92-2.28 1.94-3.31 2.85-8.32 7.53-15.62 16.2-21.32 25.9-0.8 1.25-1.48 2.62-2.28 3.87-5.01 9.13-8.78 19.05-11.06 29.55-0.34 1.48-0.57 2.96-0.91 4.44q-1.71 9.58-1.71 19.51h223.57c0-6.62-0.57-13.23-1.71-19.51-0.23-1.48-0.46-2.96-0.8-4.44z"/>
			<path class="s17" d="m809.68 602.77v111.78h4.33v-111.78c-0.69 0-1.48 0-2.17 0-0.8 0-1.48 0-2.16 0z"/>
			<path class="s18" d="m770.57 610.64l27.82 104.02h4.44l-28.27-105.5c-1.25 0.46-2.62 0.91-3.99 1.48z"/>
			<path class="s19" d="m737.28 631.28l48.11 83.27h4.9l-49.7-86.12c-1.14 0.92-2.28 1.94-3.31 2.86z"/>
			<path class="s20" d="m713.68 661.05l53.58 53.61h6.05l-57.46-57.48c-0.69 1.25-1.48 2.62-2.17 3.87z"/>
			<path class="s21" d="m701.71 695.04l33.86 19.51h8.66l-41.61-24.07c-0.34 1.6-0.57 3.08-0.91 4.56z"/>
			<path class="s22" d="m820.73 714.66h4.45l27.82-104.02c-1.37-0.57-2.74-1.02-4.11-1.48z"/>
			<path class="s23" d="m833.27 714.66h5.02l48.11-83.26c-1.02-1.03-2.16-1.94-3.3-2.85z"/>
			<g style="opacity: .3">
				<path class="s24" d="m850.26 714.66h6.04l53.59-53.61c-0.69-1.25-1.48-2.62-2.28-3.87z"/>
			</g>
			<path class="s25" d="m879.45 714.66h8.66l33.86-19.5c-0.23-1.49-0.57-2.97-0.91-4.45z"/>
			<path class="s26" d="m1004.74 699.38c-1.48-6.62-3.87-13-7.07-18.82-0.45-0.8-0.91-1.6-1.36-2.51-3.65-6.16-8.21-11.64-13.57-16.42-0.69-0.58-1.37-1.26-2.17-1.83-5.7-4.68-12.08-8.55-19.04-11.29-0.79-0.34-1.71-0.69-2.62-0.91-6.95-2.51-14.48-3.88-22.23-4q-0.69 0-1.37 0-0.68 0-1.37 0c-7.75 0.12-15.27 1.6-22.23 4-0.91 0.34-1.71 0.57-2.62 0.91-6.96 2.74-13.34 6.61-19.04 11.29-0.68 0.57-1.37 1.25-2.17 1.83-5.35 4.78-9.91 10.26-13.56 16.42-0.46 0.8-0.92 1.6-1.37 2.51-3.19 5.82-5.59 12.09-7.07 18.82-0.23 0.91-0.34 1.94-0.57 2.85-0.68 3.99-1.14 8.21-1.14 12.43h142.05c0-4.22-0.34-8.44-1.14-12.43 0.12-1.03-0.11-1.94-0.34-2.85z"/>
			<path class="s27" d="m933.94 643.6v71.06h2.74v-71.06q-0.68 0-1.37 0-0.68 0-1.37 0z"/>
			<path class="s28" d="m909.2 648.51l17.67 66.04h2.85l-17.9-67.07c-0.91 0.46-1.82 0.69-2.62 1.03z"/>
			<path class="s29" d="m888 661.74l30.55 52.92h3.19l-31.58-54.75c-0.79 0.57-1.48 1.14-2.16 1.83z"/>
			<path class="s30" d="m872.95 680.56l34.09 33.99h3.87l-36.48-36.5c-0.46 0.91-1.03 1.71-1.48 2.51z"/>
			<path class="s31" d="m865.42 702.23l21.55 12.43h5.47l-26.44-15.28c-0.23 0.91-0.46 1.82-0.58 2.85z"/>
			<path class="s32" d="m941.01 714.66h2.85l17.67-66.04c-0.8-0.34-1.71-0.68-2.62-0.91z"/>
			<path class="s33" d="m948.99 714.66h3.19l30.56-52.92c-0.69-0.57-1.37-1.26-2.17-1.83z"/>
			<path class="s34" d="m959.82 714.66h3.88l34.09-33.99c-0.46-0.8-0.92-1.59-1.37-2.51z"/>
			<path class="s35" d="m978.29 714.66h5.47l21.55-12.43c-0.11-0.91-0.34-1.94-0.57-2.85z"/>
			<path class="s36" d="m1290 707h-1296v95.58h1296z"/>
			<g id="Clip-Path" clip-path="url(#cp6)">
				<g>
					<path fill-rule="evenodd" class="s37" d="m544.79 745.02c-8.6 9.07-17.38 15.25-26.76 14.82q-3.5-0.15-5.6-1.47c-1.43-0.91-2.3-2.21-2.68-3.77-0.36-1.53-0.25-3.29 0.19-5.16 0.44-1.89 1.21-3.96 2.24-6.16 3.74-8.06 11-18.29 18.02-28.19v-0.01q0.92-1.29 1.84-2.58c3.79-5.37 7.44-10.59 10.35-15.28 2.93-4.72 5.07-8.83 5.93-12q0.63-2.37 0.28-3.75c-0.21-0.88-0.7-1.52-1.58-1.95-0.93-0.46-2.36-0.71-4.46-0.59-2.08 0.12-4.72 0.59-8.03 1.49-6.5 1.78-13.75 5.87-21.59 11.71-7.83 5.84-16.18 13.37-24.9 21.96-12.28 12.11-25.24 26.27-38.42 40.67-5.53 6.05-11.1 12.13-16.68 18.13-18.83 20.24-37.72 39.45-55.27 52.27-17.48 12.76-33.99 19.47-47.89 13.99-6.87-2.71-10.33-6.6-10.74-11.5-0.4-4.76 2.13-10.13 6.26-15.74 8.28-11.26 23.68-24.3 38.63-36.83q0.81-0.67 1.61-1.34l0.07-0.06 0.03-0.02c6.91-5.79 13.68-11.46 19.59-16.8 6.41-5.79 11.76-11.15 15.19-15.82 1.72-2.34 2.92-4.46 3.54-6.34 0.62-1.87 0.65-3.43 0.13-4.72-0.53-1.29-1.66-2.48-3.69-3.49-2.04-1.01-4.93-1.8-8.82-2.3-12.37-1.58-28.24 2.15-45.92 9.4-17.65 7.25-36.98 17.94-56.2 30.14-38.45 24.4-76.4 54.75-99.59 75.24l-1.32-1.5c23.25-20.55 61.28-50.95 99.84-75.42 19.27-12.24 38.71-23.01 56.51-30.31 17.77-7.29 34.04-11.19 46.94-9.53 4 0.51 7.13 1.34 9.45 2.49q3.5 1.72 4.65 4.53c0.75 1.87 0.64 3.94-0.08 6.1-0.72 2.16-2.05 4.47-3.83 6.89-3.55 4.84-9.03 10.32-15.46 16.12-5.94 5.37-12.74 11.06-19.64 16.84l-0.02 0.02q-0.85 0.71-1.69 1.42c-15.02 12.58-30.2 25.46-38.31 36.48-4.08 5.53-6.21 10.38-5.88 14.38 0.33 3.85 2.99 7.25 9.49 9.81 12.83 5.05 28.52-1 45.97-13.75 17.38-12.69 36.15-31.76 54.99-52.02 5.55-5.96 11.1-12.03 16.62-18.06 13.2-14.42 26.21-28.64 38.54-40.79 8.75-8.63 17.18-16.23 25.11-22.14 7.92-5.9 15.4-10.16 22.26-12.03q5.05-1.38 8.44-1.57 3.39-0.21 5.45 0.79c1.43 0.7 2.3 1.83 2.65 3.28 0.33 1.39 0.17 3.01-0.3 4.75-0.94 3.46-3.22 7.78-6.16 12.52-2.95 4.75-6.62 10.02-10.42 15.38q-0.84 1.18-1.67 2.37l-0.11 0.14-0.02 0.03c-7.07 9.97-14.21 20.05-17.88 27.94-0.99 2.12-1.71 4.06-2.1 5.76q-0.6 2.56-0.19 4.24c0.26 1.09 0.83 1.93 1.8 2.55 1 0.63 2.49 1.06 4.62 1.16 8.43 0.39 16.66-5.18 25.22-14.19 6.94-7.31 13.94-16.71 21.28-26.58h0.01v-0.01l0.02-0.02q2.5-3.38 5.07-6.79c9.21-12.25 19.04-24.64 29.94-33.96 10.91-9.32 22.98-15.65 36.67-15.65v2c-13.04 0-24.66 6.02-35.37 15.18-10.72 9.16-20.43 21.38-29.64 33.63q-2.55 3.39-5.06 6.77c-7.35 9.88-14.43 19.4-21.47 26.8zm385.33-53.3c-2-3.12-5.62-4.98-11.88-4.78-12.46 0.39-24.35 10.45-36.01 25.75-11.62 15.25-22.77 35.38-33.82 55.34l-0.15 0.28c-10.97 19.83-21.85 39.48-32.91 53.79-5.56 7.19-11.22 13.09-17 16.98-5.8 3.91-11.79 5.84-17.98 4.99-6.1-0.84-10.15-3.4-12.48-7.35-2.3-3.9-2.82-8.99-2.27-14.7 1.1-11.4 6.58-25.92 12.14-40.06q0.65-1.67 1.31-3.33l0.03-0.07c5.13-13.02 10.05-25.5 11.59-34.97 0.84-5.16 0.63-9.2-0.89-11.92-1.45-2.6-4.25-4.23-9.29-4.23-4.95 0-9.77 2.19-14.56 6.17-4.79 3.99-9.49 9.73-14.18 16.68-7.85 11.65-15.56 26.56-23.58 42.06q-2.34 4.52-4.71 9.07c-9.71 18.63-19.98 37.34-31.5 51.41-11.5 14.04-24.41 23.65-39.45 23.65-7.43 0-12.29-1.93-14.9-5.66-2.59-3.68-2.75-8.8-1.57-14.62 1.19-5.86 3.78-12.66 7.01-19.91 2.74-6.14 5.97-12.65 9.22-19.23q0.89-1.79 1.77-3.58c7.72-15.64 15.12-31.27 16.61-43.37 0.75-6.03 0-11-2.73-14.65-2.72-3.64-7.57-6.17-15.51-6.96-25.58-2.56-51.52 8.63-73.65 23.8-22.11 15.16-40.26 34.2-50.2 47.09l-1.58-1.22c10.04-13.03 28.34-32.22 50.65-47.52 22.29-15.28 48.72-26.77 74.98-24.14 8.26 0.82 13.74 3.5 16.91 7.75 3.17 4.24 3.89 9.82 3.12 16.09-1.54 12.51-9.13 28.47-16.8 44.01q-0.89 1.8-1.78 3.6c-3.26 6.57-6.46 13.04-9.18 19.14-3.22 7.22-5.74 13.86-6.88 19.49-1.15 5.67-0.86 10.09 1.24 13.08 2.07 2.95 6.12 4.81 13.27 4.81 14.12 0 26.52-9.02 37.9-22.92 11.37-13.88 21.56-32.43 31.28-51.06q2.36-4.53 4.69-9.04c8.02-15.5 15.79-30.54 23.72-42.29 4.73-7.02 9.55-12.93 14.55-17.09 5.01-4.17 10.26-6.64 15.84-6.64 5.49 0 9.12 1.82 11.04 5.26 1.86 3.33 1.97 7.95 1.11 13.21-1.58 9.7-6.57 22.38-11.67 35.31v0.01q-0.69 1.73-1.37 3.47c-5.58 14.21-10.94 28.45-12.01 39.52-0.54 5.53 0.02 10.11 2 13.48 1.95 3.31 5.39 5.61 11.04 6.39 5.56 0.77 11.06-0.94 16.58-4.67 5.54-3.72 11.03-9.43 16.53-16.54 10.98-14.19 21.79-33.74 32.81-53.65l0.09-0.17c11.03-19.92 22.25-40.19 33.98-55.58 11.67-15.32 24.08-26.12 37.54-26.54 6.7-0.21 11.13 1.79 13.62 5.7 2.44 3.82 2.88 9.23 2.24 15.48-0.64 6.27-2.4 13.6-4.56 21.41-1.08 3.9-2.27 7.95-3.47 12.05l-0.06 0.18c-1.19 4.05-2.39 8.15-3.54 12.26-2.32 8.34-4.38 16.66-5.52 24.45-1.14 7.79-1.34 14.99 0.02 21.11 1.35 6.1 4.23 11.1 9.27 14.6 5.06 3.52 12.4 5.6 22.81 5.6v2c-10.65 0-18.44-2.12-23.95-5.95-5.53-3.85-8.65-9.33-10.08-15.82-1.43-6.46-1.2-13.93-0.05-21.83 1.16-7.92 3.25-16.33 5.58-24.7 1.14-4.1 2.35-8.21 3.53-12.24l0.01-0.02 0.06-0.2c1.21-4.11 2.39-8.14 3.47-12.03 2.15-7.79 3.87-14.98 4.49-21.08 0.63-6.14 0.13-10.96-1.93-14.19zm314.74 102.05c0.22 2.05 0.1 3.73-0.45 4.99-0.59 1.34-1.63 2.13-3.01 2.38-1.29 0.23-2.82-0.03-4.47-0.6-3.33-1.14-7.65-3.64-12.7-7.01-5.07-3.37-10.96-7.66-17.44-12.42q-1.2-0.88-2.42-1.78c-12.45-9.14-26.89-19.76-41.96-29-16.07-9.85-32.76-18.08-48.38-21.29-7.89-1.62-13.22-2.25-16.5-2.08-1.65 0.09-2.63 0.38-3.15 0.73-0.24 0.16-0.36 0.32-0.43 0.46q-0.1 0.22-0.07 0.65c0.08 0.62 0.47 1.51 1.3 2.69q1.22 1.74 3.45 4.02c2.95 3.03 7.08 6.67 11.99 10.82 2.89 2.44 6.03 5.05 9.36 7.8v0.01c7.97 6.6 16.93 14.03 25.68 21.93 12.39 11.2 24.41 23.42 32.58 35.68q3.07 4.58 4.26 7.67c0.79 2.02 1.07 3.79 0.56 5.16-0.56 1.5-1.91 2.2-3.52 2.41-1.58 0.21-3.62-0.03-5.97-0.58-4.74-1.1-11.17-3.53-18.79-6.78-7.64-3.27-16.52-7.39-26.19-11.89l-2.39-1.12c-18.8-8.76-40.35-18.8-61.46-26.87-22.03-8.43-43.46-14.65-60.69-15.05-6.91-0.16-11.86 0.54-15.19 1.86-3.29 1.31-4.92 3.19-5.45 5.43-0.55 2.31 0.02 5.23 1.69 8.71 1.65 3.45 4.32 7.31 7.75 11.44 13.76 16.52 39.34 36.63 58.77 50.12l-1.14 1.64c-19.45-13.51-45.22-33.74-59.17-50.48-3.49-4.19-6.27-8.2-8.02-11.86-1.74-3.64-2.53-7.07-1.83-10.03 0.72-3.03 2.94-5.35 6.67-6.83 3.69-1.47 8.94-2.16 15.96-2 17.6 0.41 39.3 6.74 61.37 15.18 21.17 8.09 42.78 18.17 61.56 26.92l2.42 1.13c9.67 4.5 18.52 8.61 26.12 11.86 7.62 3.25 13.91 5.62 18.46 6.67q3.42 0.79 5.27 0.55c1.2-0.16 1.69-0.59 1.89-1.13 0.25-0.66 0.2-1.82-0.54-3.74-0.73-1.87-2.05-4.27-4.06-7.28-8.03-12.05-19.91-24.13-32.27-35.31-8.71-7.87-17.62-15.25-25.57-21.84v-0.01c-3.33-2.76-6.5-5.38-9.41-7.84-4.91-4.15-9.11-7.85-12.13-10.96q-2.29-2.33-3.66-4.26c-0.88-1.26-1.5-2.48-1.64-3.6-0.07-0.58-0.02-1.16 0.22-1.7q0.38-0.81 1.15-1.32c0.97-0.64 2.39-0.96 4.15-1.05 3.56-0.19 9.11 0.49 17.01 2.11 15.97 3.28 32.89 11.65 49.02 21.54 15.15 9.29 29.66 19.95 42.09 29.09q1.23 0.91 2.43 1.79c6.49 4.76 12.34 9.02 17.37 12.37 5.04 3.36 9.18 5.73 12.23 6.78 1.54 0.52 2.68 0.67 3.48 0.52 0.72-0.13 1.21-0.49 1.52-1.21 0.35-0.8 0.5-2.07 0.31-3.98-0.2-1.89-0.73-4.31-1.63-7.31-1.77-5.92-5.54-12.52-10.7-19.52-5.14-7-11.63-14.34-18.78-21.74-11.91-12.34-25.62-24.78-37.95-35.97q-3.71-3.37-7.21-6.56c-6.98-6.38-13.26-12.22-18.11-17.21-4.81-4.95-8.35-9.19-9.72-12.34-0.68-1.56-0.96-3.15-0.22-4.44 0.75-1.3 2.29-1.9 4.19-2.09 3.84-0.38 10.45 0.77 20.36 3.6l-0.55 1.92c-9.94-2.84-16.2-3.87-19.61-3.53-1.72 0.17-2.4 0.66-2.65 1.09-0.26 0.45-0.3 1.25 0.31 2.65 1.21 2.77 4.48 6.76 9.33 11.74 4.8 4.95 11.03 10.75 18.02 17.13q3.49 3.19 7.19 6.54c12.33 11.2 26.1 23.69 38.06 36.08 7.18 7.44 13.73 14.85 18.95 21.94 5.22 7.08 9.14 13.9 11.01 20.13q1.38 4.6 1.69 7.68z"/>
					<path class="s38" d="m382.16 740.45c-133.23 0-155.6 44.25-390.59 44.25v69.72h1298.43v-149.04c-285.09 0-248.4 62.2-493.97 62.2-245.57 0-298.5-27.13-413.87-27.13z"/>
				</g>
			</g>
			<path class="s39" d="m469.51 412.87c114.08-114.08 114.12-299.09 0.09-413.22-114.03-114.13-298.96-114.17-413.04-0.09-114.08 114.08-114.12 299.09-0.09 413.22 114.03 114.13 298.96 114.17 413.04 0.09z"/>
			<path class="s11" d="m73.44 431.74h5.54v366.61h-5.54z"/>
			<path class="s40" d="m37.61 400.14c13.53 0 26.29 9.7 35.19 18.62-6-8.53-14.31-18.81-20.69-20.95-10.83-3.49-19.92-1.74-19.92-1.74 0 0 10.25-14.36 25.33-7.57 6.77 2.91 12.38 12.42 16.44 21.53-2.32-8.53-3.87-18.62-2.52-27.93 3.68-23.27 29.78-25.21 29.78-25.21 0 0-14.5 20.17-17.21 44.03-0.39 3.1-0.58 6.2-0.77 9.11 2.32-13.77 7.73-30.26 20.88-38.98 32.67-21.73 53.16 16.68 53.16 16.68 0 0-18.75-11.64-43.3 0.77-19.34 9.7-27.65 30.84-30.36 39.18 3.29-6.4 16.63-30.25 38.28-33.94 32.48-5.43 40.8 35.88 40.8 35.88 0 0-18.57-14.93-41.57-13.96-17.79 0.77-30.74 8.15-37.12 13.96 3.28-0.97 10.83-2.71 19.53-2.71 28.8-0.39 34.8 38.21 34.8 38.21l-54.72-33.56c2.32 4.46 7.16 13.78 9.86 20.37 3.68 8.92 1.36 28.71 1.36 28.71 0 0-8.9-15.13-11.41-25.02-2.52-9.51-1.93-19.4-1.55-24.06l-37.12 40.16c0 0-9.09-24.45 18.76-36.28 3.67-1.55 6.95-2.91 9.47-3.88-6.77 0.97-14.89 3.69-23.2 9.12-16.24 10.47-26.49 24.83-26.49 24.83 0 0-10.05-29.68 14.69-41.32 8.12-3.88 17.4-3.29 25.33-1.55-5.99-3.49-13.73-6.01-23.2-4.85-22.43 2.72-28.61 18.82-28.61 18.82 0 0-6.38-36.66 26.1-36.47z"/>
			<path class="s41" d="m231.38 774.59c-2.39-10.98-6.33-21.37-11.58-30.92-0.72-1.31-1.55-2.75-2.39-4.06-6.08-10.14-13.6-19.22-22.31-27.1-1.07-1.07-2.27-2.03-3.46-2.98-9.31-7.76-19.93-14.09-31.38-18.63-1.44-0.59-2.87-1.07-4.3-1.55-11.46-4.06-23.86-6.32-36.63-6.56-0.72 0-1.55 0-2.27 0-0.72 0-1.55 0-2.27 0-12.88 0.24-25.18 2.5-36.63 6.56-1.43 0.48-2.86 1.08-4.3 1.55-11.45 4.54-22.07 10.87-31.38 18.63-1.19 0.95-2.39 2.03-3.46 2.98-8.71 7.88-16.35 16.96-22.31 27.1-0.84 1.31-1.56 2.75-2.39 4.06-5.25 9.55-9.19 19.94-11.58 30.92-0.35 1.55-0.59 3.1-0.95 4.66q-1.79 10.02-1.79 20.41h234c0-6.92-0.6-13.85-1.79-20.41-0.24-1.56-0.48-3.11-0.83-4.66z"/>
			<path fill-rule="evenodd" class="s42" d="m119.33 682.67v116.99h-4.54v-116.99zm-42.34 7.06q0.54-0.19 1.06-0.38l29.59 110.43h-4.65l-29.12-108.87c1.06-0.44 2.11-0.82 3.12-1.18zm12.39 109.93l-50.35-87.15 0.32-0.28c0.99-0.88 2.06-1.84 3.14-2.7l52.02 90.13zm-73.92-58.02q0.59-1.04 1.13-2.03l60.14 60.17h-6.32l-56.08-56.11q0.54-0.99 1.13-2.03zm21.78 58.02l-35.44-20.41q0.28-1.28 0.52-2.59 0.2-1.07 0.43-2.19l43.56 25.19zm118.61-110.31c1.43 0.48 2.86 0.96 4.29 1.56l-29.11 108.87h-4.66zm-11.09 110.43h-5.26l52.15-90.14c1.19 0.96 2.39 1.91 3.46 2.99zm72.55-60.17c0.84 1.31 1.67 2.75 2.39 4.06l-56.09 56.11h-6.32zm-20.4 60.17h-9.07l43.55-25.07c0.36 1.55 0.72 3.1 0.96 4.65z"/>
			<path class="s43" d="m65.37 684.94c-10.97 0-15.08-9.6-15.08-22.98 0-13.37-3.77-24.34-18.51-25.03-19.2-0.69-17.48 17.83-17.48 40.47 0 28.8-10.29 10.28-24.68 26.4-12.34 13.72 3.43 38.07 8.22 45.27h62.05c2.05-3.77 7.2-13.03 13.02-24.35 13.03-24 3.43-39.78-7.54-39.78z"/>
			<path fill-rule="evenodd" class="s44" d="m35.89 689.4h-3.08v43.01l-12.96-17.29-2.47 1.85 15.43 20.58v11.52h3.08v-32.49l13.08-16.22-2.41-1.94-10.67 13.24z"/>
			<path class="s45" d="m78.06 749.41h-91.87v51.1h91.87z"/>
			<path class="s46" d="m1285-2h-1285v800h1185c55.23 0 100-44.77 100-100z"/>
		</g>
	</g>
	<path class="s47" d="m1383.26 557.32c112.86-112.91 112.86-295.97 0-408.88-112.86-112.91-295.85-112.91-408.71 0-112.86 112.91-112.86 295.97 0 408.88 112.86 112.91 295.85 112.91 408.71 0z"/>
	<path class="s48" d="m1035.36 749.55c82.54-82.57 82.54-216.46 0-299.03-82.54-82.58-216.37-82.58-298.91 0-82.54 82.57-82.54 216.46 0 299.03 82.54 82.58 216.37 82.58 298.91 0z"/>
	<path class="s49" d="m625.27 818.48c-1.57-7.23-4.16-14.08-7.62-20.37-0.47-0.86-1.02-1.81-1.57-2.67-4-6.69-8.95-12.67-14.68-17.86-0.71-0.7-1.49-1.33-2.28-1.96-6.12-5.11-13.11-9.28-20.65-12.27-0.95-0.39-1.89-0.71-2.83-1.02-7.54-2.68-15.71-4.17-24.11-4.33-0.47 0-1.02 0-1.49 0-0.47 0-1.02 0-1.49 0-8.48 0.16-16.57 1.65-24.11 4.33-0.94 0.31-1.89 0.7-2.83 1.02-7.54 2.99-14.53 7.16-20.65 12.27-0.79 0.63-1.57 1.34-2.28 1.96-5.73 5.19-10.76 11.17-14.69 17.86-0.54 0.86-1.02 1.81-1.57 2.67-3.45 6.29-6.04 13.14-7.61 20.37-0.24 1.03-0.4 2.05-0.63 3.07q-1.18 6.61-1.18 13.45h154c0-4.56-0.39-9.12-1.18-13.45-0.16-1.02-0.31-2.04-0.55-3.07z"/>
	<path class="s45" d="m779.31 841.26c-2.45-11.28-6.49-21.94-11.87-31.75-0.74-1.35-1.59-2.82-2.45-4.16-6.24-10.42-13.95-19.74-22.89-27.83-1.1-1.1-2.32-2.08-3.55-3.06-9.54-7.97-20.44-14.47-32.18-19.12-1.47-0.62-2.94-1.11-4.41-1.6-11.75-4.17-24.48-6.49-37.57-6.74-0.74 0-1.59 0-2.33 0-0.73 0-1.59 0-2.32 0-13.22 0.25-25.83 2.57-37.58 6.74-1.46 0.49-2.93 1.11-4.4 1.6-11.75 4.65-22.64 11.15-32.19 19.12-1.22 0.98-2.45 2.08-3.55 3.06-8.93 8.09-16.77 17.41-22.89 27.83-0.85 1.34-1.59 2.81-2.44 4.16-5.39 9.81-9.43 20.47-11.87 31.75-0.37 1.59-0.62 3.19-0.98 4.78q-1.84 10.3-1.84 20.96h240c0-7.11-0.61-14.22-1.84-20.96-0.24-1.59-0.48-3.19-0.85-4.78z"/>
	<path fill-rule="evenodd" class="s50" d="m1048.97 562.91c-0.22 5.69-0.88 10.73-1.56 15.95l-0.12 0.85c-0.72 5.52-1.91 11.04-3.11 16.55v0.01c-2.4 11.04-5.52 21.84-9.84 32.63l-1.68 4.08-0.72 1.44q-0.01 0.14-0.09 0.23c-0.06 0.1-0.15 0.21-0.15 0.49-0.48 1.2-1.2 2.4-2.4 3.6-0.96 1.2-2.39 2.16-3.83 3.12-1.44 0.72-3.12 1.2-4.56 1.44-2.88 0.24-5.28-0.24-7.2-0.72-3.83-1.2-6.47-2.88-9.11-4.8-2.64-1.68-4.8-3.6-6.96-5.52-8.47-7.76-15.32-15.99-21.69-24.91-4.8-1.7-8.77-5.8-8.77-5.8l5.47-17.15-5.47 16.91-12.23-7.44 3.59-14.64 14.16 5.04 9.59 15.12-0.05 1.92 0.29-0.24q2.9 2.7 5.88 5.4 2.98 2.7 5.87 5.4c4.08 3.6 8.16 6.71 12.24 9.83q0.93 0.63 1.82 1.25h0.01c1.46 1.01 2.87 1.98 4.4 2.83 1.68 1.05 3.55 1.74 4.95 2.21l0.33-0.77 1.44-3.6c3.36-9.59 6-19.67 7.92-29.99 0.51-2.71 0.96-5.49 1.41-8.29q0.57-3.64 1.22-7.31c0.72-5.04 1.44-10.56 1.68-15.36zm-30.31 65.37c0.41 0.05 0.52-0.1 0.33-0.1q-0.11 0.01-0.33 0.1z"/>
	<path class="s51" d="m1040.2 540.76c-7.19 1.92-12.47 31.92-12.47 31.92l20.15 13.68c0 0 19.19-30.24 13.67-38.4-6-8.4-10.79-10.08-21.35-7.2z"/>
	<path class="s52" d="m1040.68 547.48l-5.51 30.24 11.27 7.68z"/>
	<path class="s53" d="m1082.04 920.76h-23.7l-1.28-40.2h23.38z"/>
	<path class="s54" d="m1058.09 918.58h23.94c0.87 0 1.44 0.6 1.73 1.49l2.6 19.63c0.29 2.08-1.44 3.87-3.46 3.87-8.37 0-12.41-0.6-22.79-0.6-6.35 0-19.91 0.6-28.85 0.6-8.65 0-9.52-9.22-5.77-9.82 16.73-3.57 23.37-8.92 28.85-13.68 1.15-0.89 2.59-1.49 3.75-1.49z"/>
	<path class="s55" d="m1057.06 881.65l0.63 15.21h23.27l-0.94-15.21z"/>
	<path class="s56" d="m1054.89 890.63c0 0-14.01-124.06-15.21-180.21-0.39-18.19 2.06-43.45 4.34-60.7h38.02l-2.5 60.7c-2.16 55.19 2.5 180.22 2.5 180.22z"/>
	<path class="s51" d="m1045.14 540.25c0 0-3.06 9.69-3.81 18.18-0.82 9.36-9.8 26.11-4.59 35.89 12.17 15.75 6.11 39.83 8.4 54.02 28.54 0 58.04 0 71.95 0-1.19-29.27-1.19-47.27 12.72-107.5 0 0-15.11-3.36-30.47-4.09-11.99-0.48-22.06-0.96-32.62 0-14.15 1.21-21.58 3.5-21.58 3.5z"/>
	<path class="s57" d="m1095.99 499.8c-2.16 10.56-4.08 29.76 3.11 36.71 0 0-2.87 10.56-22.3 10.56-21.59 0-10.32-10.56-10.32-10.56 11.76-2.87 11.52-11.51 9.36-19.67z"/>
	<path class="s55" d="m1087.83 506.76l-11.75 10.08c0.48 1.92 0.96 3.84 0.96 5.76 4.55-0.72 10.55-5.52 11.03-10.32 0.24-2.16 0.24-4.32-0.24-5.52z"/>
	<path class="s58" d="m1059.41 491.15c-7.69-11.55-5.27-22.22 0-28.18h20.62c0.69 9.17 2.06 28.45 2.06 32.3 0 3.85 19.71-2.75 17.87 1.38-4.58-0.92-32.85 6.05-40.55-5.5z"/>
	<path class="s59" d="m1107.02 480.6c-4.08 17.04-5.52 24.48-15.83 31.68-15.59 11.04-35.5 2.16-36.7-15.84-0.96-16.08 6-41.51 23.99-45.35 18.23-3.6 32.86 12.48 28.54 29.51z"/>
	<path class="s60" d="m1086.02 892.51h-33.95l-2.61-10.81 38.02-1.14z"/>
	<path class="s61" d="m1076.08 682.18c-7.98 15.95-5.1 41.12-3.81 62.59 1.58 26.33 3.01 48.73 6.45 61.95 3.12-36.23 8.63-80.63 12.71-113.02-2.4-18.48-7.2-27.84-15.35-11.52z"/>
	<path class="s62" d="m1148.85 888.17l-22.81-92.34v-90.71l-6.72-54.85h-40.74c-4.78 30.41 5.82 113.7 14.33 156.97l26.41 80.93z"/>
	<path class="s53" d="m1132.01 921.3l-6.51-26.07h22.81l3.8 26.07z"/>
	<path class="s54" d="m1123.38 932.59l7.85-11.83h20.73c2.56 1.53 3.72 11.13 4.48 17.58 0.3 2.51-1.27 4.91-3.69 5.61l-17.6 5.05h-25.46c-2.06 0-3.71-1.69-3.68-3.75 0-7.35 12.12-12.05 17.37-12.66z"/>
	<path fill-rule="evenodd" class="s55" d="m1148.86 899.03l-0.55-3.8h-22.81l0.95 3.8z"/>
	<path class="s60" d="m1153.38 895.77h-33.96l-2.61-10.81 38.02-1.14z"/>
	<path fill-rule="evenodd" class="s58" d="m1117.15 455.41c-11.4 0-20.62 9.22-20.62 20.62 0 11.4 9.22 20.62 20.62 20.62 11.4 0 20.62-9.22 20.62-20.62 0-11.4-9.22-20.62-20.62-20.62z"/>
	<path class="s58" d="m1079.97 480.58c0.25-1.43-0.28-2.73-1.2-2.89-0.91-0.16-1.86 0.87-2.11 2.31-0.26 1.43 0.28 2.73 1.19 2.89 0.91 0.16 1.86-0.87 2.12-2.31z"/>
	<path class="s58" d="m1064.08 477.96c-0.24 1.44-1.2 2.4-2.15 2.16-0.96-0.24-1.44-1.44-1.2-2.88 0.24-1.44 1.2-2.4 2.16-2.16 0.95 0.24 1.43 1.44 1.19 2.88z"/>
	<path class="s58" d="m1063.37 475.32l-3.12-1.68c-0.24 0 1.2 2.88 3.12 1.68z"/>
	<path class="s63" d="m1067.92 481.08c0 0-3.36 5.52-6.71 8.16 1.44 2.16 4.79 1.92 4.79 1.92z"/>
	<path class="s58" d="m1074.12 499.27c-1.06 0-2.11 0-3.53-0.35-0.35 0-0.7-0.34-0.35-0.69 0-0.34 0.35-0.69 0.71-0.34 9.17 1.72 14.47-3.79 14.47-3.79 0.35-0.35 0.7-0.35 0.7 0 0.36 0.34 0.36 0.68 0 0.68 0 0-4.23 4.49-12 4.49z"/>
	<path class="s64" d="m1116.39 465.36c7.99 19.05-8.43 28.8-17.64 31.29l8.82-17.28-1.76-9.34c-8.04-4.99-21.99-15.14-13.52-15.88 10.58-0.94 21.16 4.2 24.1 11.21z"/>
	<path class="s58" d="m1079.44 449.89c-7.92 4.56 11.51 47.51 25.9 41.51 14.39-6 9.6-30 2.64-35.99-7.2-6.24-17.51-12-28.54-5.52z"/>
	<path class="s58" d="m1113.71 465.03c9.35 28.04-9.85 42.38-20.62 46.05l10.31-25.43-2.06-13.74c-9.4-7.33-25.71-22.27-15.81-23.37 12.37-1.38 24.74 6.18 28.18 16.49z"/>
	<path class="s58" d="m1074.88 447.73c0 0-9.6 1.44-15.83 13.19-6.48 12 30.22-11.51 24.94-13.19-5.03-1.68-9.11 0-9.11 0z"/>
	<path class="s65" d="m1107.74 493.56c-1.44 3.36-4.08 5.76-6.96 6.96-4.07 1.68-6.71-1.92-5.99-6.24 0.72-3.84 3.6-9.12 8.15-9.12 4.32 0 6.48 4.32 4.8 8.4z"/>
	<path fill-rule="evenodd" class="s53" d="m1137.48 559.55c4.08 9.6 7.2 19.2 10.08 29.04 2.88 9.84 5.27 19.92 6.47 30.48 0.24 2.63 0.48 5.27 0.72 8.15v2.16q0 0.06 0.01 0.2c0.05 0.59 0.16 2.24-0.25 3.88-0.24 0.96-0.72 2.16-1.44 3.12-0.72 1.2-1.68 2.16-2.63 2.88-2.16 1.44-4.08 1.92-5.52 2.16-1 0.17-1.88 0.11-2.64 0.05q-0.51-0.04-0.96-0.05-0.68-0.15-1.32-0.23c-0.49-0.06-0.94-0.12-1.32-0.25q-2.52-0.72-4.32-1.44c-2.63-1.2-5.03-2.4-7.43-3.6-9.12-5.28-17.27-11.28-24.95-17.99l0.12-0.18c-3.26-1.66-5.83-4.77-7.27-6.78l-11.08-12.24 7.2-13.44 12.23 8.4 5.86 17.81 1.22 0.61c7.6 3.82 15.35 7.7 22.9 10.85 1.51 0.68 3.02 1.23 4.45 1.66q-0.22-1.34-0.37-2.62c-0.72-4.55-1.92-9.11-3.11-13.67h-0.01c-0.6-2.28-1.26-4.62-1.91-6.96-0.66-2.34-1.32-4.68-1.92-6.96-2.88-9.12-6.24-18.48-9.6-27.36z"/>
	<path class="s58" d="m1084.47 471.48c-0.24 0-0.48 0-0.72-0.24-2.64-2.64-5.51-2.16-5.75-2.16-0.48 0-0.96-0.24-0.96-0.72 0-0.48 0.24-0.96 0.72-0.96 0.24 0 4.07-0.72 7.19 2.64 0.24 0.24 0.24 0.96 0 1.2-0.24 0.24-0.24 0.24-0.48 0.24z"/>
	<path class="s58" d="m1058.33 469.32c-0.24 0-0.48 0-0.48-0.24-0.24-0.24-0.24-0.96 0-1.2 3.12-3.36 6.95-2.64 7.19-2.64 0.48 0 0.72 0.48 0.72 0.96 0 0.48-0.48 0.72-0.96 0.72-0.24 0-3.11-0.48-5.75 2.16-0.24 0.24-0.48 0.24-0.72 0.24z"/>
	<path class="s51" d="m1129.81 540.6c7.19 2.15 15.83 27.11 15.83 27.11l-28.07 19.92c0 0-10.31-20.64-7.19-30 3.36-9.6 11.27-19.43 19.43-17.03z"/>
	<path class="s66" d="m1046.43 920.76c-2.97 0-5.95-0.44-7.65-2.17q-1.27-1.31-1.27-3.91c0-0.87 0.42-1.74 1.27-2.17 3.83-2.17 16.15 4.34 17.85 5.21 0.43 0 0.43 0.43 0.43 0.87 0 0.43-0.43 0.43-0.43 0.43-2.97 1.3-6.8 1.74-10.2 1.74zm-5.52-6.52c-0.43 0-0.85 0-1.28 0.44-0.42 0-0.42 0.43-0.42 0.87 0 0.86 0 1.73 0.85 2.6 1.7 1.74 7.22 2.17 14.02 0.87-4.67-2.61-10.2-4.78-13.17-4.78z"/>
	<path class="s66" d="m1056.21 919.67c-4.26-1.58-11.51-7.9-11.08-11.06 0-0.79 0.85-1.58 2.98-1.98 1.7 0 2.98 0.4 4.26 1.19 3.84 3.16 4.69 11.06 4.69 11.06 0 0.4 0 0.4-0.43 0.79zm-7.67-11.85h-0.43c-1.28 0-1.28 0.79-1.28 0.79-0.42 1.97 4.69 7.11 8.52 9.09-0.42-2.38-1.27-7.12-3.83-9.09-0.85-0.4-1.71-0.79-2.98-0.79z"/>
	<path class="s66" d="m1126.41 923.92c-2.34-1.71-4.42-3.77-4.75-6.11q-0.25-1.75 1.25-3.79c0.5-0.68 1.33-1.12 2.25-0.97 4.25 0.5 10.16 12.7 10.99 14.36 0.34 0.25 0.08 0.59-0.17 0.93-0.25 0.34-0.58 0.09-0.58 0.09-3.08-0.69-6.33-2.55-8.99-4.51zm-0.58-8.29c-0.34-0.24-0.67-0.48-1.25-0.39-0.34-0.24-0.59 0.1-0.84 0.44-0.5 0.68-1 1.36-0.83 2.53 0.33 2.34 4.41 5.86 10.49 8.76-2.16-4.74-5.24-9.62-7.57-11.34z"/>
	<path class="s66" d="m1134.69 928.7c-2.43-3.69-4.47-12.82-2.31-15.05 0.45-0.62 1.58-0.75 3.47 0.17 1.34 0.98 2.11 2.03 2.66 3.38 1.19 4.69-2.7 11.37-2.7 11.37-0.22 0.31-0.22 0.31-0.78 0.37zm0.82-13.7l-0.34-0.25c-1-0.73-1.46-0.11-1.46-0.11-1.47 1.3-0.42 8.27 1.45 12.03 1.03-2.11 3.09-6.31 2.23-9.33-0.44-0.8-0.88-1.6-1.88-2.34z"/>
	<path class="s67" d="m1118.05 644.02l1.92 6.48c0.24 0.48-0.24 0.96-1.2 0.96h-74.11c-0.72 0-1.2-0.24-1.2-0.72l-0.72-6.48c0-0.48 0.48-0.72 1.2-0.72h72.91c0.72-0.24 1.2 0 1.2 0.48z"/>
	<path class="s68" d="m1108.46 652.18h1.92c0.48 0 0.72-0.24 0.72-0.48l-0.96-8.4c0-0.24-0.48-0.48-0.72-0.48h-1.92c-0.48 0-0.72 0.24-0.72 0.48l0.96 8.4c0 0.24 0.24 0.48 0.72 0.48z"/>
	<path class="s68" d="m1050.17 652.18h1.92c0.48 0 0.72-0.24 0.72-0.48l-0.96-8.4c0-0.24-0.48-0.48-0.72-0.48h-1.92c-0.48 0-0.72 0.24-0.72 0.48l0.96 8.4c0 0.24 0.48 0.48 0.72 0.48z"/>
	<path class="s68" d="m1079.2 652.18h1.91c0.48 0 0.72-0.24 0.72-0.48l-0.96-8.4c0-0.24-0.48-0.48-0.71-0.48h-1.92c-0.48 0-0.72 0.24-0.72 0.48l0.96 8.4c0 0.24 0.48 0.48 0.72 0.48z"/>
	<path class="s58" d="m1079.2 477.96l-3.12-1.68c0 0.24 1.2 3.12 3.12 1.68z"/>
	<path class="s69" d="m911.38 476.11h-18.11l-2.45-10.95c0 0 7.17 4.15 8.87 1.32 1.69-2.83 1.32-1.7 3.01-1.32 1.7 0.38 1.7-1.88 3.78-0.56 2.26 1.51 5.65 8.68 4.9 11.51z"/>
	<path class="s70" d="m892.71 925.72l22.25-1.89-1.13-27.55-22.44 2.08z"/>
	<path class="s71" d="m934.2 921.94c0 0-14.71-6.79-17.16-11.69 0 0-4.34-15.85-10.94-7.55 0 0-6.79 5.47-16.41 1.13l-1.13 30 66.57-0.19c-1.69-4.53-3.2-9.62-20.93-11.7z"/>
	<path class="s72" d="m888.56 934.02l-0.38 4.72 67.14-0.19c0-1.89 0.57-2.83-0.38-4.72z"/>
	<path class="s70" d="m795.21 921.94l22.25 3.78 5.85-26.79-22.07-3.78z"/>
	<path class="s73" d="m838.02 921.94c0 0-14.71-6.79-17.17-11.69 0 0 3.4-12.46-4.52-6.23 0 0-13.58 5.09-19.24-1.13l-4.52 31.13 66.57-0.19c-2.08-4.72-3.59-9.81-21.12-11.89z"/>
	<path class="s72" d="m792.38 934.02l-0.38 4.72 67.14-0.19c0-1.89 0.57-2.83-0.38-4.72z"/>
	<path class="s74" d="m918.73 666.1c0 0 3.97 113.39 0.38 242.26 0 0-10.75 10.19-31.12 3.4 0 0 0.19-143.4-5.28-200.38 0 0-25.65 108.3-58.08 202.07 0 0-21.69 4.16-29.42-8.11 0 0 43.75-151.88 50.16-239.24z"/>
	<path class="s75" d="m918.73 666.1h-73.36c-0.56 6.61-1.13 13.59-2.07 20.76 43.75 0.18 66.95-10.95 75.62-16.04 0-3.21-0.19-4.72-0.19-4.72z"/>
	<path class="s76" d="m958.72 587.24c-20.18-35.66-36.02-47.74-36.02-47.74-8.68 4.91-2.08 38.49-2.08 38.49 5.47 10.75 9.24 20.38 17.35 29.81z"/>
	<path class="s77" d="m922.69 539.5c0 0-0.94 21.7-3.77 126.03 0 0-25.65 13.02-76.76 3.97 0 0-0.18-31.32-7.16-59.06 0 0-13.01-52.26-6.41-67.54 0 0 41.68-25.85 94.1-3.4z"/>
	<path class="s78" d="m883.09 518.82l0.38 13.51c0 0-3.21 4.72-10.94 5.28-7.73 0.38-11.51-3.96-11.51-3.96l-0.75-20.11c9.62 4.15 19.05 5.85 22.82 5.28z"/>
	<path class="s79" d="m882.34 513.27l0.75 14.91c-3.77 0.57-13.2-1.13-22.63-5.28l-0.57-9.63z"/>
	<path class="s61" d="m831.23 572.33c0 0 11.12 25.09 15.09 36.41 3.95 11.14 3.95 55.47 24.7 63.97 0 0-22.06-1.33-29.04-3.21 0 0-0.38-33.4-7.17-59.06 0 0-4.71-26.98-6.6-39.24z"/>
	<path class="s80" d="m845.94 480.45c0.38 0.18 0.75 6.22 0.75 6.22l1.51 12.64 6.98 5.47 3.96 1.7c0 0 5.84-2.45 5.09-4.71-0.75-2.08-4.53-31.89-5.28-31.89-0.75 0-6.79 4.34-6.79 4.34z"/>
	<path class="s80" d="m901.2 469.13c1.69 0-0.95 20.75-0.95 20.75l-3.02-8.3-2.07-10z"/>
	<path class="s81" d="m898.37 473.28l3.2 26.6c0 0 1.13 22.45-17.35 23.77-18.48 1.13-31.12-17.17-31.12-17.17 0 0-2.26 2.64-4.71-1.88-2.26-4.53-0.76-10.57 2.45-11.14 3.4-0.37 4.91 1.51 5.28 4.34 0.38 2.83 0.76 4.91 0.76 4.91l2.83-0.38-2.08-21.88c0 0 4.34-8.49 9.24-10.19 4.9-1.7 9.24 5.09 9.24 5.09 0 0 4.53 0.94 8.87 0 4.33-0.94 7.16-2.07 7.16-2.07 0 0 2.64 0.75 6.23 0z"/>
	<path class="s82" d="m884.98 513.46c-6.23 0.38-7.17-6.79-7.17-6.79 0 0 14.33-1.7 14.71-1.89 0 0 1.13 8.12-7.54 8.68z"/>
	<path class="s83" d="m878.38 508.93c-0.57-1.31-0.76-2.26-0.76-2.26 0 0 14.33-1.7 14.71-1.89 0 0 0.19 0.95 0 2.46z"/>
	<path class="s80" d="m878.94 466.48v-19.24c-11.5 0.56-23.38 2.83-29.23 10-6.98 8.49-3.02 28.11-3.02 28.11 0 0 8.49-0.94 10-3.77 1.51-2.83 15.84-6.8 26.78-6.23 10.94 0.57 16.22-0.57 21.69-5.28 1.13-0.95 2.07-2.27 2.82-3.78h-29.04z"/>
	<path class="s84" d="m845.37 478.18c0 0 8.11-2.64 21.69-3.77 22.82-9.63 32.63-7.93 32.63-7.93 0 0-0.19-7.36-2.27-12.45-2.07-5.09-16.03-12.26-27.72-11.13-11.69 1.13-23.76 9.81-25.65 18.11-1.51 6.42 1.32 17.17 1.32 17.17z"/>
	<path class="s85" d="m859.14 475.35c2.45-11.7 19.99-17.55 32.44-17.36 12.26 0.19 20.93 10.38 22.25 17.36 0.57 2.83-1.7 3.21-2.45 0.76-0.57-1.7-1.7-9.82-13.01-8.87-11.32 0.94-10.75 11.13-16.41 12.07-5.28 0.95-11.32-2.83-22.82-3.96z"/>
	<path class="s80" d="m897.05 477.99v-1.32c-0.57 0-4.91-0.56-10.19 0.57l0.19 2.07c4.34-1.32 10-1.32 10-1.32z"/>
	<path class="s80" d="m865.17 482.71c3.4-1.89 9.81-2.83 9.81-3.02l-0.75-1.89c-0.19 0-6.04 1.14-9.81 3.59z"/>
	<path class="s86" d="m884.03 489.13c0 0 0.57 3.96 2.08 5.09 1.51 1.13 4.15 2.07 4.52 3.02 0.38 0.75-0.37 2.26-2.07 2.83-1.7 0.56-1.89 1.13-1.89 1.13 0 0 3.4 0.38 5.1-1.7 1.69-2.07-0.19-3.77-1.89-4.72-1.7-0.94-2.45-1.32-3.21-1.88-0.94-0.57-2.64-3.77-2.64-3.77z"/>
	<path class="s80" d="m875.92 491.2c0 1.89-1.32 3.58-3.01 3.58-1.7 0-3.02-1.51-3.02-3.58 0-1.89 1.32-3.58 3.02-3.58 1.69 0 3.01 1.5 3.01 3.58z"/>
	<path class="s80" d="m896.67 488.75c0 1.88-1.32 3.58-3.02 3.58-1.7 0-3.02-1.51-3.02-3.58 0-1.89 1.32-3.59 3.02-3.59 1.7 0.19 3.02 1.7 3.02 3.59z"/>
	<path class="s87" d="m989.08 539.31h-116.55v90h116.55z"/>
	<path class="s88" d="m989.27 539.31h-42.44v90h42.44z"/>
	<path class="s89" d="m974.75 539.31h-10.94v12.45h10.94z"/>
	<path class="s89" d="m912.13 539.31h-10.93v12.45h10.93z"/>
	<path class="s90" d="m989.27 605.54c0 0-6.04 3.96-7.73 5.66-1.7 1.7-4.72 17.92-1.7 19.62 3.02 1.7 8.86 0 10.75 0.38 2.07 0.37 8.11-3.4 8.11-6.42 0-3.02-3.77-23.02-4.72-23.39-0.94-0.38-4.71-2.83-4.71-2.83z"/>
	<path class="s45" d="m913.45 604.22h-36.4v17.73h36.4z"/>
	<path fill-rule="evenodd" class="s91" d="m841.22 627.23c-13.76-20-15.65-80.56-15.65-80.56 18.86 2.45 31.49 27.73 31.49 27.92l2.83 36.23 48.13 7.71 2.6-2.43c0 0 11.13-5.66 20.18-4.71 0 0 4.15 0.75 3.21 3.2-0.38 1.32 0.38 2.17 1.13 3.02 0.76 0.85 1.51 1.7 1.13 3.02-0.31 1.11-0.03 1.96 0.25 2.79 0.39 1.14 0.76 2.26-0.43 4 0 0 1.5 2.27-0.19 4.34q-0.12 0.14-0.25 0.3c-1.79 2.2-5.28 6.48-6.54 6.12-0.48-0.14-1.58-0.32-2.82-0.53-2.22-0.37-4.86-0.81-5.1-1.17-0.38-0.57-0.76-1.7 1.13-2.83 0 0-2.08 0.57-4.72 0.19-2.64-0.19-6.41-2.27-6.41-2.27l-0.7-0.58c-52.9 4.34-69.27-3.76-69.27-3.76z"/>
	<path class="s92" d="m862.35 602.14l-5.29-27.74c0 0-9.61-29.05-28.47-31.5 0 0-13.58 8.49 3.2 66.22z"/>
</svg>